<svg id="Layer_1" data-name="Layer 1" xmlns="http://www.w3.org/2000/svg" width="1920" height="1080" viewBox="0 0 1920 1080">
  <defs>
    <style>
      .cls-1 {
        fill: #009444;
        opacity: 0.5;
      }

      .cls-1, .cls-4, .cls-5, .cls-6 {
        stroke: #414042;
        stroke-width: 8px;
      }

      .cls-1, .cls-2, .cls-4, .cls-5, .cls-6 {
        stroke-miterlimit: 10;
      }

      .cls-2, .cls-4 {
        fill: none;
      }

      .cls-2 {
        stroke: #fdb714;
        stroke-width: 42.46px;
      }

      .cls-3 {
        fill: #8c6339;
      }

      .cls-5 {
        fill: #414042;
      }

      .cls-6 {
        fill: #fdb714;
      }

      .cls-7 {
        fill: #515251;
      }
    </style>
  </defs>
  <title>mållinje</title>
  <rect class="cls-1" x="926.43" y="-201.69" width="1427.13" height="703.9"/>
  <line class="cls-2" x1="1920" y1="398.08" y2="1064.3"/>
  <polygon class="cls-3" points="-39.92 1099.54 1958.58 403.54 1936.71 1123.4 -39.92 1099.54"/>
  <polygon class="cls-3" points="0 1043.57 0 -39.14 1222.38 -17.12 1885.72 384.35 0 1043.57"/>
  <line class="cls-4" x1="1338.13" x2="1337.93" y2="52.82"/>
  <line class="cls-4" x1="1408.06" x2="1408.66" y2="95.63"/>
  <line class="cls-4" x1="1475.57" x2="1473.78" y2="135.04"/>
  <line class="cls-5" x1="1475.57" x2="1920" y2="242.99"/>
  <line class="cls-4" x1="1535.96" y1="33.02" x2="1534.99" y2="172.08"/>
  <line class="cls-4" x1="1623.09" y1="80.66" x2="1617.06" y2="221.75"/>
  <line class="cls-6" x1="1721.54" y1="134.48" x2="1711.15" y2="278.7"/>
  <line class="cls-6" x1="1806.81" y1="181.11" x2="1795.36" y2="329.66"/>
  <line class="cls-6" x1="1885.72" y1="224.25" x2="1885.72" y2="384.35"/>
  <path class="cls-7" d="M1392.15,298a31.53,31.53,0,0,1-4.55-2,54.13,54.13,0,0,1-5.91-4.26,2.19,2.19,0,0,1-.5-1.25c-.3-2.85-.6-5.71-.79-8.59-.1-1.51.08-3.08,0-4.62-.06-1.81-.21-3.62-.34-5.42,0-.24-.12-.46-.14-.71-.31-4-.52-8,.71-11.87.34.52.64,1,1,1.44,1.74,2.52,3.44,2.53,5.19.08.3-.42.66-.86,1-.94,1.24-.29,1.68-1.82,1.81-3.7.1-1.33.47-1.76,1.12-1.62s1-.29,1.23-1.46a1,1,0,0,1,.57-.66c.32-.08.66.1,1,.08,1-.07,1.37-.74,1.43-2.46s.11-3.59.09-5.38a3.39,3.39,0,0,1,.71-2.51,15.46,15.46,0,0,0,3.64-7.17c.09-.36.46-.49.7-.71,0,0,.11,0,.16,0,2.64.7,3.4-1.25,3.52-6.08,0-.35,0-.69,0-1.08,1.11-.62,2.22-1.2,3.32-1.86a7.12,7.12,0,0,0,3.22-3.25l-5.8-1c0-2.41.08-4.56,0-6.68a41.76,41.76,0,0,0-5.93-20.45c-2.61-4.24-5.5-7.58-9-9l-1.11-.48h-2.84a33.84,33.84,0,0,0-3.38,1.39c-4.22,2.26-7.29,7.21-9.75,13.57-.44,1.15-.89,2.29-1.3,3.48-.26.79-.54,1-1.08.89a34.4,34.4,0,0,1-11.38-5.52,32.82,32.82,0,0,0-9.45-4.55c-8.12-2.71-16.32-4.13-24.52-5.55a10.72,10.72,0,0,0-8.52,1.7c-2.41,1.71-5,2.52-7.32,4.84-.19.19-.53.1-.75-.07a9.48,9.48,0,0,1-1.63-1.5c-1-1.28-2.07-1-3,.15A8.72,8.72,0,0,0,1302,196a13.68,13.68,0,0,1-3.77,5.92,17.74,17.74,0,0,0-4.63,6.68,8.85,8.85,0,0,1-1.85,2.72c-2.19,2.23-3.67,5.54-4.47,9.72-.84,4.42-1.7,8.89-2.18,13.46a36.45,36.45,0,0,0,2.68,18.28c1.27,3,2.61,5.84,4,8.59,5.21,10.18,10.35,20.49,16.17,29.59,1.52,2.39,3.23,4.39,4.8,6.69a36.56,36.56,0,0,1,2.87,4.89c.94,2,1.65,4.28,2.55,6.3a27.44,27.44,0,0,0,1.88,3.08,4.56,4.56,0,0,1,.4.86c.09.24.08.66.19.81,1.22,1.55,1.19,4.16,1.67,6.33a2.9,2.9,0,0,1-.13,1.5c-2,4.21-4,8.36-5.9,12.58-.34.72-.66,1-1.18,1m.89-.53c3,0,6,1,9,0,22.43-12.68,43-29.16,67.16-36.46m-77.05,37c-4.12.63-7.7-2-11.21-5.52-4.41-4.49-8.91-8.73-13.43-12.89a8.54,8.54,0,0,0-6.17-2.66c-2.59.13-3.67,2.93-2.79,7.3.1.51.21,1,.37,1.73a10.71,10.71,0,0,0-1.52.61c-1.53.85-3.07,1.67-4.57,2.69a1.43,1.43,0,0,1-1.57.2c-5-2.24-9.61-6.14-14.32-9.65-3.88-2.89-7.83-5.3-12-6.25a31.83,31.83,0,0,0-13.87.24c-10.37,2.27-19.42,10.13-27.69,21.25-2.11,2.84-4,6.14-6.23,8.76-3.92,4.69-7.92,9.21-12,13.43-2.62,2.7-5.5,4.54-8.16,7.12a62.16,62.16,0,0,0-4.69,5.87,2.53,2.53,0,0,0-.6,1.16c2.39-3.12,4.81-6,7.7-7.45-.23.31-.45.64-.68.93a48.91,48.91,0,0,0-6.57,10.54,41.19,41.19,0,0,1-8.72,12.57c-.82.81-1.64,1.65-2.46,2.48,0,.14.08.29.11.44l8.63-6.62c-3.64,5.42-7.69,9.24-11.47,13.83,3.89-2.94,7.85-5.62,11.48-9.71-.91,1.53-1.78,3.15-2.73,4.58s-2,2.8-3.07,4.11-2.09,2.45-3.14,3.68-2.12,2.53-3.14,4l5.41-3.92c-6,6.82-9.62,16.82-12.43,28.08,1.24-2.88,2.45-5.79,3.72-8.62a22.63,22.63,0,0,1,4.71-6.8c-3,7-4,15.21-4.58,23.71,1.75-9.05,3.14-18.4,6.79-25.87-.28,1.21-.57,2.42-.84,3.64-2.12,9.22-4.09,18.55-6.39,27.62-1.76,7-3.87,13.69-5.94,20.41-3.47,11.29-8.6,19.29-15.23,24.21a47,47,0,0,0-4.31,3.6,4.2,4.2,0,0,0,.55-.22c2.11-1.24,4.23-2.42,6.32-3.74,5.31-3.36,9.16-10,12.26-18.15,1.66-4.37,3.26-8.81,4.89-13.22a4.82,4.82,0,0,1,.66-1.39c-.11.43-.2.88-.33,1.28-1.86,6-3.69,11.94-5.61,17.84-3,9.26-7.45,15.17-13.19,17.92-5.25,2.52-10.51,5-15.76,7.5a21.7,21.7,0,0,0-8.35,6.84c.24-.07.34-.05.4-.12,4.11-4.36,8.64-6.06,13.31-7,2.32-.47,4.61-1.29,6.91-2a1.59,1.59,0,0,1,.84-.05c-5.13,3.81-10.24,7.67-15.57,10.39s-10.78,5-16.11,7.49a19.93,19.93,0,0,0,2,0,10.79,10.79,0,0,0,2.24-.42c4-1.37,8.06-2.83,12.09-4.17,2-.67,4.11-1.15,6.39-1.78a35.71,35.71,0,0,0-4.28,3.72,29.5,29.5,0,0,0-3.63,5.43c-1.06,2-1.89,4.35-2.82,6.55.1.15.2.3.29.45.94-1.78,1.85-3.62,2.83-5.33,1.88-3.28,4.1-5.41,6.68-6.34,3.32-1.21,6.37-3.75,9.38-6.42s6.3-5.67,9.45-8.52c.23-.2.47-.38.88-.72-3.58,4.12-7,7.88-10.37,12s-6.5,8.53-9.73,12.82l.12.32,11.1-13.36.2.52c-4.3,5.35-8.55,10.82-12.9,16s-9.09,9.14-13.81,13.14a38.57,38.57,0,0,0,11.37-8.35c3.57-3.61,7.1-7.32,10.71-10.83-1.56,2.18-3.15,4.3-4.68,6.53a74.35,74.35,0,0,0-7.5,13.57,33.46,33.46,0,0,0-2.68,10.34,22.8,22.8,0,0,0,0,2.62,28.69,28.69,0,0,1,4.26-13.83,67.4,67.4,0,0,1,4.54-6.33c6.24-7.77,12.2-16.19,18.07-24.81a2.72,2.72,0,0,1,.69-.77c-4.25,7.39-8.65,14.51-11.72,23.77,4.53-10,10.05-18.24,15.34-26.88-6.7,13.1-13.46,26.11-19,41,3.15-6.7,6.2-13.58,9.49-20.06s6.75-12.87,10.37-18.83,7.53-11.31,11.32-16.93c0,.1.1.2.14.3l-9.63,15.52.16.33,3.3-5.31a122,122,0,0,1,13.47-17.29c3.48-3.9,6.89-8.06,10.16-12.51,3.74-5.08,6.43-11.58,7-20.83.32.76.49,1.1.61,1.49a72.62,72.62,0,0,0,12.93,24c2.65,3.31,5,7.52,7.39,11.39a3.4,3.4,0,0,1,.17,1.59,71.43,71.43,0,0,1-6.93,25c-2.29,4.62-4.59,9.25-7.08,13.52-4.59,7.91-3,19.2,2,23.56,2.26,2,4.67,3.46,7,5.39,10.06,8.51,20.25,16.58,29.77,27,3.15,3.44,6.12,7.42,9.13,11.26a26,26,0,0,1,2.25,3.76,5.35,5.35,0,0,0,2.37,2.6c1.37.6,2.07,2.74,2.88,4.51a2,2,0,0,1-.49,2.21c-1.47,1.12-1.67,3.46-1.73,5.82,0,2,.1,4,.16,6-.3.11-.95,0-1.09.49A10.44,10.44,0,0,0,1243,618a11.18,11.18,0,0,0,.32,2.32c1.6,7.27,3.74,13.92,7.12,19.06,2.26,3.44,3.78,3.11,5-1.77,1.29-5.06,2.17-10.45,3.34-15.61a35.89,35.89,0,0,0,.28-12.19c-.2-1.85-.28-3.75-.43-5.79a2.49,2.49,0,0,1,.4.34c5.3,7.65,10.63,15.26,15.89,23a47.53,47.53,0,0,1,2.81,5.67c1.23,2.56,2.39,5.17,4.49,5.69,1.29.31,2.16,2.21,2.87,4.08.57,1.52,1,3.21,1.52,4.92-.45.57-.83,1.07-1.22,1.53-1.84,2.19-2.41,5.32-2,9.1.09,1,.28,2,.41,3a14.17,14.17,0,0,1,.11,3.87,9.57,9.57,0,0,0,.52,4.34,56.06,56.06,0,0,0,3.88,7.54c2.47,4,5.38,6.48,8.69,7.34h2l.78-.42c1.29-.71,1.71-1.84,1.53-4.21q-.9-12-1.84-24a7.73,7.73,0,0,0-.16-1c-.74-3.17-1.45-6.36-2.25-9.48s-1.57-6.05-2.47-9a71.8,71.8,0,0,1-3.51-15.89,6.93,6.93,0,0,0-1.54-3.91c-2.29-3-4.55-6.05-6.82-9.1a3.22,3.22,0,0,1-.45-.83,16.8,16.8,0,0,1,6.1,5.56c1.67,2.47,3.21,5.23,4.76,7.94a4.71,4.71,0,0,0,3.15,2.66c9.16,1.67,18.15,5,27.07,9a30.6,30.6,0,0,1,4.64,2.82,4.63,4.63,0,0,0,5.69.18c1.84-1.27,3.65-2.63,5.43-4.13,3.11-2.62,4.55-7.36,4.48-13.29-.14-11.18,1-22.07,2-33,.82-9.1,2-18.1,3-27.15.14-1.27.31-2.56.33-3.84a18.23,18.23,0,0,1,3.41-10.33c2.12-3.24,4.69-5.12,7.19-7.14,4.07-3.3,8.17-6.5,12.26-9.68a1.17,1.17,0,0,1,1.2-.16c2,.92,4,1.93,5.92,2.93a5.8,5.8,0,0,1,1.33.84c7.1,6.41,14.64,10.63,22.17,15,2.64,1.52,5.2,3.54,7.87,4.79,2.45,1.14,3.91,4.13,5.32,7.43a10.77,10.77,0,0,1,.1,8,107.65,107.65,0,0,1-8.22,18,46.62,46.62,0,0,1-7.51,10.59,14.42,14.42,0,0,1-3.31,2.36c-1.16.63-2.21,1.28-2.12,4.17a14.32,14.32,0,0,1-3.15-.46c-.46-.16-.93-1-1.25-1.69-.45-1-.7-2.27-1.14-3.29-.71-1.63-1.52-1.87-2.58-1.09-.81.59-1.65,1.35-2.42-.25a.5.5,0,0,0-.55-.2,11.08,11.08,0,0,0-2.3.58c-1.16.48-1.44,1.05-2.29,4.1l-1-.4c.13-.77.29-1.45.35-2.15.08-1-.27-1.53-.74-1-3.15,3.57-6.41,6.93-8.59,12.59-1.91,4.95-.86,9.45,2.47,10.38a65.14,65.14,0,0,0,7.29,1.2,4.43,4.43,0,0,1,1.32.34,6.27,6.27,0,0,0,4.69.33,29.07,29.07,0,0,1,6.84-1.39c2.15,0,4.29.73,6.44,1.17a18.42,18.42,0,0,1,1.88.57c2.1.65,3.82-.59,5.06-3.61,4.68-11.34,10.16-21.42,15.38-31.9.49-1,1-2,1.48-2.85a21.43,21.43,0,0,1,1.82-2.58c2.09-2.5,3.49-6.09,4.78-9.83a4,4,0,0,0,.15-1.29c0-3.14,0-6.28.12-9.41a55.81,55.81,0,0,0-.65-10.22,18.45,18.45,0,0,0-2.81-7.62,15.71,15.71,0,0,0-1.45-2c-3.61-3.74-6.52-8.92-9.37-14.28-3-5.59-6-11-9.08-16.52a63.88,63.88,0,0,1-4.54-11.23,2.07,2.07,0,0,1,.22-1.79c2.45-5.62,4.94-11.19,7.33-16.88,3.15-7.46,3.94-16,3.35-25.11-.34-5.2-.56-10.43-.77-15.66a53.92,53.92,0,0,1,2.24-18q7.11-23.58,15.46-45.8c.28-.74.62-1.4.9-2.15,2.53-6.72,6.33-9.77,10.49-11.78.23-.11.6.13.78.45.93,1.64,1.83,3.35,2.7,5.08a4.8,4.8,0,0,1,.27,1.32c.07.63,0,1.3.15,1.91.4,2.5,1.44,3.35,2.7,2.11.44-.43.74-.5,1.18,0,1.34,1.49,2.72,1.53,4.12.25.49-.44,1-.83,1.55-1.3.26,1.5.46,2.81.72,4.08a2.68,2.68,0,0,0,.5,1.09c.41.52.88.88,1.28,1.41.54.73,1.05.91,1.67.27a.58.58,0,0,1,.76,0c2.59,2.23,5.18,4.52,7.77,6.79l.2.22a1.11,1.11,0,0,1,0,.29c-.77,4.62.55,7.77,3.51,8.33a24.25,24.25,0,0,0,2.64.22c.11,2.06.31,4,.28,6a17.79,17.79,0,0,1-.62,3.63c-.25,1.1-.62,2.1-.86,3.22,1.35-1.44,2.07-1.31,3.6.44,1.12-1.75,2.23-3.34,3.25-5.1,1.62-2.78,1.77-3,3.33-.29s3.37,3,5.38,2a6,6,0,0,1,2.61-.63c1.36,0,2.45-.81,3.11-3,.24-.81.56-1.14,1-1.14,2.22,0,3.73-2.51,5.23-5a5.08,5.08,0,0,0,.52-3.16c-.08-.84-.25-1.66-.27-2.49a9.62,9.62,0,0,1,.17-2.73c.86-2.75,1.84-5.4,2.77-8.09V373c-.52-1.41-1-2.92-1.56-4.2-3.53-7.53-7-15-10.65-22.47a127.18,127.18,0,0,1-9-26.26c-1.2-5.08-2.6-10-4-15a17.67,17.67,0,0,0-1.29-3.1,1.4,1.4,0,0,1,0-1.61c.41-.59.83-1.16,1.4-1.95-.69-.7-1.24-1.53-1.87-1.83-2.67-1.29-4.73-4.33-6.77-7.37-1.59-2.36-3.08-4.9-4.58-7.43a4.27,4.27,0,0,1-.54-1.88,3.64,3.64,0,0,0-.82-2.39c-1.15-1.5-2.31-2.8-3.83-2.07-.17.08-.43-.15-.59-.36-2-2.63-3.92-5.24-5.85-7.95-.82-1.17-1.53-2.59-2.31-3.87-1.75-2.84-3.49-5.7-5.26-8.48-.65-1-1.21-.8-1.68.48a17,17,0,0,0-.8,6.17c0,.79.07,1.58.11,2.57-4.87-3.41-8.8-8.8-12.08-15.91.07.39.13.78.2,1.17.74,3.86,1.54,7.7,2.2,11.6a50.7,50.7,0,0,0,4.41,13.77c.22.45.43.91.75,1.55l-4.88,4.49L1419,252.21l-.16.23c1.28,3.29,2.59,6.54,3.81,9.9s2.34,6.74,3.39,10.3c-3.35-5.84-6.43-12.15-10.65-16.52.66,2.27,1.25,4.32,1.83,6.37-3.61-5.74-6.89-12.09-11.33-15.83a102.63,102.63,0,0,1,10.27,17.16c-4.57-6.11-9.27-11.63-15.37-11,.57.23,1.09.45,1.62.65s1.14.4,1.71.64c6,2.48,10.3,9,13,18.92.61,2.32.85,5,1.31,7.72l-5.33-4.35-.06.28,1.7,3.39-7.61-4.39c0,.16-.07.31-.1.47,2,1.9,4.34,2.87,6,6-4-2.24-7.57-6.42-11.41-9.55l8.18,10.69-24.92-11.48-.06.39,15.18,10.74-.06.23-8.07-3.35,0,.3,10.23,7.15c0,.16-.07.32-.1.49-4.11-2.3-8.17-5-12.71-6.14l6,5.65-.09.39c-4-3.46-8-6.9-12.54-7.39A57.45,57.45,0,0,1,1395,293l-8.61-4.75-.09.48c2.71,1.62,5.49,3,7.57,5.81l-8.79-3.3c0,.13,0,.26,0,.39,2.78,1.81,5.76,2.85,8.26,6.07l.71-.21-.71.21c.25.34.51.69.75,1.07-.63-.26-1.26-.5-1.88-.74-24.2,7.3-44.73,23.78-67.16,36.46-3,1-6,0-9,0m44.31-63.56c.93-1.16,1.89-2.23,2.85-3.3s1.25-1,1.43,1.05c.38,4.38.58,8.82,1.05,13.16.34,3.16,1,6.21,1.49,9.31.32,2,.51,4,.91,5.89.48,2.32,1.12,4.53,1.7,6.78.15.56.34,1.09.6,1.89a7,7,0,0,1-1.12-.43,16.17,16.17,0,0,1-5.78-5.35,7.68,7.68,0,0,0-2.2-2c-.53-.39-.79-.86-.73-2a17.28,17.28,0,0,0-.15-3,8.91,8.91,0,0,1,.3-4.14,9.69,9.69,0,0,0,0-2.87c0-1.13-.2-2.25-.24-3.38-.15-3.47-.27-6.95-.38-10.43A2.48,2.48,0,0,1,1360.3,270.93ZM1240.81,514.57a285.43,285.43,0,0,1-9.83,40.14c-.06.17-.13.32-.24.61a7.85,7.85,0,0,1-.82-.58c-3.44-3.21-6.92-6.31-10.3-9.72a24.51,24.51,0,0,1-3.64-5.15,14.15,14.15,0,0,1-.94-10.63c1.32-5,3.14-9.3,6-11.69,3.07-2.61,5.46-6.62,7.71-11,3.17-6.15,6.29-12.39,9.42-18.6.7-1.37,1.38-1.46,1.83.19a54.89,54.89,0,0,1,1.5,7.24A62.54,62.54,0,0,1,1240.81,514.57Zm88.31,99.24c-.16.24-.45.24-.69.27-3.12.39-6.13-.82-9.15-2-3.74-1.4-7.48-2.91-11.22-4.34-1.21-.47-2.24-1.2-2.46-3.77a1.1,1.1,0,0,0-.47-.71c-2.64-1.52-5.28-3-7.92-4.53a3.9,3.9,0,0,1-1.06-1c-.73-1-1.47-1.93-2.43-1.51a9.34,9.34,0,0,0-1.6,1.25,29.29,29.29,0,0,0-2.71-2.18c-2.6-1.66-3.46-5.35-3.76-9.85-.12-1.82-.33-3.65-.62-5.4s-1.07-2.63-2.18-2.88a22.81,22.81,0,0,1-3.76-1.64.59.59,0,0,0-.66.08,7.43,7.43,0,0,0-.83,1.24l-3,5c-.07.12-.2.13-.28.19-.07-.09-.14-.13-.15-.2-.43-2.68-.43-2.68-1.71-1-1.4,1.82-2.78,3.65-4.2,5.41-.21.27-.67.43-.83.21-2.87-3.85-5.71-7.77-8.56-11.68-2.05-2.82-2.82-6.68-2.72-11.18a101.73,101.73,0,0,1,3-23.15,76.38,76.38,0,0,1,5.67-15.79,50.59,50.59,0,0,0,3.72-11.1c1.81-7.5,3.58-15,5.36-22.56l.46-2c.29.24.56.47.82.66,2.69,2,5.41,3.87,8.07,6,2.07,1.65,4.07,3.6,6.11,5.39a14.8,14.8,0,0,0,2,1.56,54.4,54.4,0,0,0,18.27,7,11.14,11.14,0,0,1,4.44,1.57,1.55,1.55,0,0,1,.56.89c.77,4,2.44,5.82,4.68,6,.9.09,1.23.7,1.62,2.18,1.79,6.86,2.51,14.25,3.35,21.54.68,5.93.84,12.07,1.15,18.13.58,11.38,1,22.78,1.69,34.15a85.4,85.4,0,0,0,2.39,15.67A7.29,7.29,0,0,1,1329.12,613.81Zm115.38-248,1.83,2.51C1445.13,369.33,1444.51,368.48,1444.5,365.82Zm28.31,23.52a13.35,13.35,0,0,1-4-.45c-1.79-.6-2.25-2.28-1.72-5.61l6.57,4.65.09.47C1473.42,388.73,1473.11,389.34,1472.81,389.34Z"/>
  <path class="cls-7" d="M312.5,570a32.68,32.68,0,0,1-4.55-2,53.08,53.08,0,0,1-5.9-4.26,2.19,2.19,0,0,1-.51-1.25c-.3-2.85-.6-5.71-.79-8.59-.1-1.51.08-3.08,0-4.62-.06-1.81-.21-3.62-.34-5.42,0-.24-.12-.47-.13-.71-.32-4-.53-8,.7-11.87.34.52.64,1,1,1.44,1.74,2.52,3.44,2.52,5.19.08.3-.42.66-.86,1-.94,1.24-.29,1.68-1.82,1.82-3.71.09-1.32.47-1.75,1.11-1.61s1-.29,1.23-1.46a1,1,0,0,1,.57-.66c.32-.08.66.1,1,.08,1-.07,1.37-.74,1.43-2.46s.11-3.59.09-5.38a3.39,3.39,0,0,1,.71-2.51,15.35,15.35,0,0,0,3.64-7.18c.1-.35.46-.49.7-.7,0,0,.11,0,.17,0,2.63.7,3.39-1.25,3.52-6.08v-1.08c1.11-.62,2.23-1.2,3.32-1.86A7.12,7.12,0,0,0,330.7,494l-5.8-1c0-2.41.08-4.56,0-6.68A41.84,41.84,0,0,0,319,465.9c-2.61-4.24-5.5-7.59-9-9-.37-.15-.74-.32-1.11-.48H306a35.92,35.92,0,0,0-3.38,1.39c-4.21,2.26-7.29,7.21-9.75,13.57-.44,1.15-.89,2.29-1.29,3.48-.27.79-.55,1-1.08.89a34.45,34.45,0,0,1-11.39-5.52,32.7,32.7,0,0,0-9.45-4.55c-8.12-2.71-16.32-4.14-24.52-5.55a10.72,10.72,0,0,0-8.52,1.7c-2.41,1.71-5,2.52-7.32,4.84-.18.19-.53.1-.75-.07a9.86,9.86,0,0,1-1.63-1.5c-1-1.28-2.07-1-3,.15a8.56,8.56,0,0,0-1.55,2.64,13.76,13.76,0,0,1-3.78,5.93,17.66,17.66,0,0,0-4.63,6.68,8.52,8.52,0,0,1-1.85,2.72c-2.19,2.23-3.67,5.54-4.46,9.72-.85,4.42-1.7,8.89-2.19,13.46a36.5,36.5,0,0,0,2.68,18.27c1.27,3,2.61,5.85,4,8.6,5.21,10.18,10.36,20.49,16.17,29.59,1.52,2.39,3.23,4.39,4.8,6.69a37.7,37.7,0,0,1,2.88,4.89c.93,2,1.64,4.28,2.54,6.29a25.75,25.75,0,0,0,1.88,3.08,5,5,0,0,1,.4.87c.09.24.08.66.19.81,1.22,1.55,1.19,4.16,1.67,6.32a2.94,2.94,0,0,1-.13,1.51c-2,4.21-3.95,8.36-5.9,12.58-.34.72-.66,1-1.18,1m.89-.53c3,0,6,1,9,0,22.43-12.68,43-29.16,67.16-36.46m-77.05,37c-4.12.63-7.7-2-11.21-5.52-4.41-4.49-8.91-8.73-13.43-12.89a8.54,8.54,0,0,0-6.17-2.66c-2.59.13-3.67,2.92-2.79,7.3.1.51.21,1,.37,1.73a12,12,0,0,0-1.52.6c-1.53.86-3.07,1.68-4.56,2.7a1.45,1.45,0,0,1-1.58.2c-5-2.24-9.61-6.14-14.32-9.65-3.88-2.89-7.83-5.3-12-6.25a31.68,31.68,0,0,0-13.87.24C144,585.06,134.92,592.92,126.65,604c-2.11,2.83-4,6.14-6.23,8.75-3.92,4.7-7.92,9.22-12,13.44-2.62,2.7-5.5,4.54-8.15,7.12a60.66,60.66,0,0,0-4.7,5.87,2.53,2.53,0,0,0-.6,1.16c2.39-3.12,4.81-6,7.7-7.45-.23.31-.45.64-.68.93a48.91,48.91,0,0,0-6.57,10.54A41.19,41.19,0,0,1,86.7,657c-.82.8-1.64,1.65-2.46,2.48,0,.14.08.29.11.43L93,653.27c-3.64,5.42-7.69,9.24-11.46,13.83,3.88-2.94,7.84-5.62,11.47-9.72-.91,1.54-1.77,3.16-2.73,4.59s-2,2.8-3.07,4.11-2.09,2.45-3.14,3.68-2.12,2.53-3.14,4l5.41-3.93c-6,6.83-9.62,16.83-12.42,28.09,1.23-2.88,2.45-5.79,3.71-8.62a22.63,22.63,0,0,1,4.71-6.8c-3,7-4,15.2-4.57,23.71,1.74-9.05,3.14-18.4,6.78-25.87L83.69,684c-2.12,9.22-4.09,18.55-6.39,27.62-1.76,7-3.87,13.69-5.94,20.4-3.47,11.3-8.6,19.3-15.23,24.22a47,47,0,0,0-4.31,3.6,3.22,3.22,0,0,0,.55-.23c2.11-1.23,4.23-2.41,6.32-3.74,5.31-3.36,9.16-10,12.26-18.14,1.66-4.37,3.26-8.81,4.89-13.22a5.1,5.1,0,0,1,.66-1.39c-.11.43-.2.87-.32,1.28-1.87,5.95-3.7,11.94-5.62,17.84-3,9.26-7.45,15.17-13.19,17.92-5.25,2.52-10.51,5-15.76,7.5a21.77,21.77,0,0,0-8.35,6.84c.24-.07.34-.05.41-.12,4.1-4.36,8.63-6.06,13.3-7,2.32-.48,4.61-1.29,6.91-2a1.59,1.59,0,0,1,.84-.05c-5.12,3.81-10.24,7.67-15.57,10.39s-10.78,5-16.11,7.49a20.28,20.28,0,0,0,2.05,0,9.64,9.64,0,0,0,2.23-.42c4-1.36,8.06-2.82,12.09-4.16,2.05-.68,4.11-1.15,6.39-1.78a35.71,35.71,0,0,0-4.28,3.72,30.28,30.28,0,0,0-3.63,5.42c-1.06,2-1.89,4.36-2.81,6.56l.28.45c.94-1.78,1.85-3.62,2.83-5.33,1.88-3.28,4.1-5.41,6.68-6.35,3.32-1.2,6.37-3.75,9.38-6.41,3.17-2.79,6.3-5.68,9.45-8.52.23-.2.47-.38.88-.72-3.58,4.12-7,7.88-10.37,12s-6.49,8.53-9.73,12.82l.12.31L55.7,777.4l.2.52c-4.29,5.35-8.55,10.82-12.9,16s-9.09,9.14-13.81,13.14a38.44,38.44,0,0,0,11.37-8.35c3.57-3.61,7.11-7.32,10.71-10.83-1.56,2.18-3.14,4.3-4.68,6.53A74,74,0,0,0,39.09,808a33.39,33.39,0,0,0-2.68,10.34,22.8,22.8,0,0,0,0,2.62,28.69,28.69,0,0,1,4.26-13.83,70.86,70.86,0,0,1,4.54-6.34c6.24-7.76,12.2-16.18,18.07-24.8a2.88,2.88,0,0,1,.69-.77c-4.25,7.39-8.65,14.51-11.72,23.77,4.53-10,10.05-18.24,15.34-26.88-6.7,13.1-13.45,26.11-19,41,3.15-6.7,6.2-13.58,9.49-20.06s6.75-12.87,10.37-18.83S76,762.87,79.76,757.25l.15.3-9.64,15.52.16.33c1.1-1.77,2.21-3.54,3.3-5.31A122,122,0,0,1,87.2,750.8c3.48-3.9,6.89-8.06,10.16-12.51,3.74-5.08,6.43-11.58,7-20.83.31.76.48,1.1.6,1.49a72.8,72.8,0,0,0,12.93,24c2.65,3.3,5,7.52,7.39,11.39a3.38,3.38,0,0,1,.17,1.59,71.43,71.43,0,0,1-6.93,25c-2.29,4.62-4.59,9.25-7.07,13.52-4.6,7.91-3,19.2,2,23.56,2.26,2,4.67,3.46,6.95,5.39,10.06,8.51,20.25,16.58,29.77,27,3.15,3.44,6.12,7.42,9.13,11.25a26.64,26.64,0,0,1,2.25,3.77,5.35,5.35,0,0,0,2.37,2.6c1.37.6,2.08,2.73,2.88,4.51a2,2,0,0,1-.49,2.21c-1.47,1.12-1.67,3.46-1.73,5.82-.05,2,.1,4.05.16,6.05-.3.11-.95,0-1.09.48a10.55,10.55,0,0,0-.23,2.87,11.9,11.9,0,0,0,.32,2.32c1.61,7.27,3.74,13.92,7.12,19.06,2.26,3.44,3.78,3.11,5-1.77,1.29-5.06,2.17-10.45,3.34-15.61a36.14,36.14,0,0,0,.29-12.19c-.21-1.85-.29-3.75-.44-5.79a2.11,2.11,0,0,1,.4.34c5.3,7.65,10.63,15.26,15.89,23a46.07,46.07,0,0,1,2.81,5.67c1.23,2.56,2.39,5.17,4.49,5.69,1.29.31,2.16,2.21,2.87,4.08.57,1.52,1,3.21,1.52,4.92-.45.57-.83,1.07-1.22,1.53-1.84,2.19-2.41,5.32-2.05,9.1.1,1,.28,2,.41,3a13.77,13.77,0,0,1,.11,3.87,9.59,9.59,0,0,0,.52,4.34,56.67,56.67,0,0,0,3.88,7.54c2.47,4,5.38,6.48,8.69,7.34h2l.79-.43c1.28-.7,1.7-1.83,1.52-4.21q-.9-12-1.84-24a6.33,6.33,0,0,0-.16-1c-.74-3.17-1.45-6.36-2.24-9.48s-1.58-6.05-2.48-9a72.37,72.37,0,0,1-3.51-15.89,7,7,0,0,0-1.53-3.92c-2.3-3-4.56-6-6.83-9.09a3.4,3.4,0,0,1-.45-.83,17,17,0,0,1,6.11,5.55c1.66,2.48,3.2,5.24,4.75,8a4.73,4.73,0,0,0,3.15,2.66c9.16,1.67,18.15,5,27.07,8.94a31.51,31.51,0,0,1,4.64,2.83,4.64,4.64,0,0,0,5.7.18c1.83-1.27,3.64-2.63,5.42-4.13,3.11-2.62,4.55-7.36,4.48-13.29-.14-11.18,1-22.07,2-33,.83-9.1,2-18.1,3-27.15.14-1.27.31-2.56.33-3.84A18.31,18.31,0,0,1,272.66,815c2.12-3.24,4.69-5.12,7.19-7.15,4.07-3.29,8.17-6.49,12.27-9.67a1.18,1.18,0,0,1,1.19-.17c2,.92,3.95,1.94,5.92,2.94a5.59,5.59,0,0,1,1.33.84c7.1,6.4,14.64,10.63,22.17,15,2.64,1.51,5.2,3.54,7.87,4.79,2.45,1.14,3.91,4.13,5.32,7.43a10.77,10.77,0,0,1,.1,8,108,108,0,0,1-8.22,18,46.85,46.85,0,0,1-7.51,10.59A14.73,14.73,0,0,1,317,868c-1.16.63-2.2,1.27-2.12,4.17a14.23,14.23,0,0,1-3.14-.46c-.47-.17-.94-1-1.26-1.69-.45-1-.7-2.27-1.14-3.29-.71-1.63-1.52-1.87-2.57-1.09-.82.59-1.65,1.35-2.42-.25a.51.51,0,0,0-.56-.2,11.72,11.72,0,0,0-2.3.57c-1.16.49-1.44,1.06-2.29,4.11l-1-.4c.13-.77.29-1.45.35-2.16.08-1-.27-1.52-.74-1-3.14,3.57-6.41,6.93-8.59,12.59-1.91,5-.86,9.45,2.47,10.38a65.14,65.14,0,0,0,7.29,1.2,4.36,4.36,0,0,1,1.32.34,6.34,6.34,0,0,0,4.7.33,29,29,0,0,1,6.84-1.39c2.14,0,4.29.73,6.43,1.17a19.39,19.39,0,0,1,1.89.57c2.09.65,3.81-.59,5.05-3.61,4.68-11.34,10.16-21.42,15.39-31.91.48-1,.94-2,1.47-2.85a22.12,22.12,0,0,1,1.82-2.57c2.09-2.5,3.49-6.09,4.78-9.83a4.34,4.34,0,0,0,.16-1.29c0-3.14,0-6.28.12-9.41a55.81,55.81,0,0,0-.66-10.22,18.59,18.59,0,0,0-2.8-7.62,16.79,16.79,0,0,0-1.46-2c-3.61-3.74-6.52-8.92-9.37-14.28-3-5.59-6-11-9.08-16.52A63.68,63.68,0,0,1,321,768.18a2.08,2.08,0,0,1,.22-1.79c2.45-5.61,4.94-11.18,7.33-16.87,3.15-7.46,3.94-16,3.35-25.11-.34-5.2-.56-10.43-.77-15.66a54.28,54.28,0,0,1,2.24-18q7.11-23.57,15.46-45.79c.28-.74.62-1.4.9-2.15,2.53-6.72,6.33-9.77,10.49-11.78.23-.12.61.13.78.44.93,1.65,1.83,3.36,2.7,5.09a4.17,4.17,0,0,1,.27,1.32c.07.63.05,1.3.15,1.91.4,2.5,1.44,3.34,2.7,2.11.44-.44.75-.5,1.19,0,1.33,1.49,2.71,1.53,4.11.25.49-.44,1-.83,1.56-1.3.25,1.5.45,2.81.71,4.08a2.68,2.68,0,0,0,.5,1.09c.41.52.88.88,1.28,1.41.54.73,1.05.91,1.67.27a.58.58,0,0,1,.76,0c2.59,2.23,5.18,4.52,7.77,6.79.07.06.14.15.21.22a1.06,1.06,0,0,1,0,.29c-.76,4.62.55,7.77,3.51,8.32a22.3,22.3,0,0,0,2.64.23c.11,2.06.31,4,.28,6a17.13,17.13,0,0,1-.62,3.63c-.25,1.09-.62,2.1-.86,3.22,1.36-1.44,2.07-1.31,3.6.44,1.13-1.75,2.24-3.34,3.25-5.1,1.62-2.79,1.77-3,3.33-.29s3.37,3,5.38,2a6,6,0,0,1,2.61-.63c1.36,0,2.46-.81,3.11-3,.24-.81.56-1.15,1.05-1.15,2.23,0,3.73-2.5,5.24-5a5.15,5.15,0,0,0,.51-3.16c-.08-.84-.25-1.66-.27-2.49a9.6,9.6,0,0,1,.17-2.73c.86-2.75,1.84-5.4,2.77-8.09V645c-.52-1.41-1-2.92-1.56-4.21-3.53-7.52-7-15-10.64-22.46a127.18,127.18,0,0,1-9-26.26c-1.2-5.08-2.6-10-4-15a17.67,17.67,0,0,0-1.29-3.1,1.42,1.42,0,0,1,.05-1.62l1.4-1.95c-.69-.69-1.24-1.52-1.87-1.82-2.66-1.29-4.72-4.33-6.77-7.37-1.59-2.36-3.08-4.9-4.58-7.43a4.27,4.27,0,0,1-.54-1.88,3.62,3.62,0,0,0-.82-2.39c-1.15-1.5-2.3-2.8-3.83-2.07-.17.08-.43-.15-.59-.37-2-2.62-3.92-5.23-5.84-7.94-.83-1.17-1.54-2.6-2.32-3.87-1.75-2.84-3.49-5.7-5.26-8.48-.65-1-1.21-.8-1.68.48a17,17,0,0,0-.8,6.17c0,.79.07,1.58.11,2.57-4.87-3.41-8.8-8.81-12.08-15.91.07.39.13.78.2,1.17.74,3.86,1.54,7.69,2.2,11.6a50.7,50.7,0,0,0,4.41,13.77l.75,1.55-4.88,4.49-13.83-28.53-.16.23c1.28,3.29,2.59,6.54,3.82,9.9s2.34,6.74,3.38,10.3c-3.35-5.84-6.43-12.15-10.65-16.52.66,2.27,1.25,4.32,1.84,6.36-3.62-5.73-6.9-12.08-11.33-15.83a104.11,104.11,0,0,1,10.26,17.16c-4.57-6.1-9.27-11.62-15.36-11l1.61.65c.57.22,1.14.4,1.71.64,6,2.48,10.3,9,12.95,18.92.61,2.32.85,5,1.31,7.72l-5.33-4.35-.06.28L335,552l-7.61-4.39c0,.15-.07.31-.1.47,2,1.89,4.34,2.87,6,6-4-2.24-7.58-6.42-11.42-9.55L330,555.21l-24.92-11.48-.06.39,15.18,10.74-.06.23-8.07-3.35,0,.3,10.23,7.15c0,.16-.07.32-.1.49-4.11-2.3-8.17-5-12.71-6.14l6,5.65-.09.39c-4-3.46-8-6.9-12.54-7.39A57.45,57.45,0,0,1,315.34,565l-8.61-4.75-.09.48c2.71,1.61,5.49,3,7.57,5.81l-8.79-3.3c0,.13,0,.26-.05.39,2.78,1.81,5.76,2.84,8.26,6.07l.71-.21-.71.21c.25.34.51.68.76,1.07L312.5,570c-24.19,7.3-44.73,23.78-67.16,36.46-3,1-6,0-9,0m44.31-63.56c.93-1.16,1.89-2.23,2.85-3.3s1.25-1,1.43,1c.38,4.38.58,8.82,1.05,13.16.34,3.16,1,6.21,1.49,9.31.32,2,.51,4,.91,5.89.48,2.31,1.12,4.53,1.7,6.78.15.56.34,1.09.6,1.89a7.37,7.37,0,0,1-1.12-.43,16.12,16.12,0,0,1-5.78-5.36,7.79,7.79,0,0,0-2.2-2c-.53-.4-.79-.86-.73-2a18.34,18.34,0,0,0-.14-3,8.78,8.78,0,0,1,.29-4.14,9.69,9.69,0,0,0,0-2.87c0-1.13-.2-2.25-.24-3.38-.15-3.48-.27-7-.38-10.44A2.46,2.46,0,0,1,280.65,542.9ZM161.16,786.54a285.78,285.78,0,0,1-9.83,40.14c-.06.17-.13.32-.24.61-.3-.22-.57-.36-.82-.58-3.44-3.21-6.92-6.31-10.3-9.72a24.51,24.51,0,0,1-3.64-5.15,14.1,14.1,0,0,1-.93-10.63c1.31-5,3.13-9.3,5.95-11.7,3.08-2.6,5.47-6.62,7.72-11,3.17-6.15,6.28-12.39,9.42-18.6.69-1.37,1.37-1.46,1.82.19a54.89,54.89,0,0,1,1.5,7.24A62.54,62.54,0,0,1,161.16,786.54Zm88.31,99.24c-.16.24-.45.24-.69.27-3.11.39-6.13-.82-9.14-1.95-3.75-1.4-7.49-2.91-11.23-4.35-1.21-.46-2.24-1.19-2.46-3.76a1.07,1.07,0,0,0-.47-.71c-2.63-1.53-5.28-3-7.92-4.53a3.9,3.9,0,0,1-1.06-1c-.73-1-1.47-1.93-2.43-1.51a8.87,8.87,0,0,0-1.6,1.25,29.29,29.29,0,0,0-2.71-2.18c-2.6-1.67-3.46-5.35-3.76-9.85-.12-1.82-.33-3.65-.62-5.4s-1.07-2.64-2.18-2.88a23.19,23.19,0,0,1-3.76-1.64.59.59,0,0,0-.66.08,8.1,8.1,0,0,0-.83,1.24l-3,5c-.07.12-.19.13-.28.19-.07-.09-.14-.13-.15-.2-.43-2.69-.43-2.68-1.71-1-1.39,1.82-2.78,3.65-4.2,5.41-.21.27-.67.43-.83.21-2.87-3.85-5.71-7.78-8.56-11.68-2-2.83-2.82-6.69-2.72-11.19a101.71,101.71,0,0,1,3-23.14,76.38,76.38,0,0,1,5.67-15.79,51.13,51.13,0,0,0,3.73-11.1c1.8-7.5,3.57-15,5.35-22.56l.46-2c.3.24.56.47.82.66,2.7,2,5.41,3.87,8.07,6,2.07,1.65,4.07,3.59,6.11,5.38a14.12,14.12,0,0,0,2,1.57,54.4,54.4,0,0,0,18.27,7,11.14,11.14,0,0,1,4.44,1.57,1.55,1.55,0,0,1,.56.88c.77,4,2.45,5.83,4.68,6,.9.09,1.24.69,1.62,2.18,1.79,6.86,2.51,14.25,3.35,21.54.68,5.93.84,12.07,1.15,18.12.58,11.39,1,22.79,1.69,34.16a85.4,85.4,0,0,0,2.39,15.67A7.29,7.29,0,0,1,249.47,885.78Zm115.38-248,1.83,2.51C365.48,641.3,364.86,640.45,364.85,637.79Zm28.31,23.52a13.68,13.68,0,0,1-4-.45c-1.79-.6-2.25-2.28-1.72-5.62L394,659.9l.09.47C393.77,660.7,393.47,661.31,393.16,661.31Z"/>
  <path class="cls-7" d="M326.15-51.37a32.68,32.68,0,0,1-4.55-2,54.41,54.41,0,0,1-5.9-4.26,2.26,2.26,0,0,1-.51-1.25c-.3-2.86-.6-5.71-.79-8.59-.1-1.52.08-3.09,0-4.62-.06-1.82-.21-3.62-.34-5.43,0-.24-.12-.46-.13-.7-.32-4-.53-8,.7-11.87.34.51.64,1,1,1.44,1.74,2.52,3.44,2.52,5.19.07a2.3,2.3,0,0,1,1-.94c1.24-.28,1.68-1.81,1.82-3.7.09-1.32.47-1.75,1.11-1.62s1-.28,1.23-1.46a.92.92,0,0,1,.57-.65c.32-.08.66.1,1,.08,1-.07,1.37-.75,1.43-2.46s.11-3.59.09-5.39a3.38,3.38,0,0,1,.71-2.5,15.45,15.45,0,0,0,3.64-7.18c.1-.36.46-.49.7-.71,0,0,.11,0,.17,0,2.63.7,3.39-1.24,3.52-6.08v-1.08c1.11-.62,2.23-1.2,3.32-1.86a7.12,7.12,0,0,0,3.22-3.25l-5.8-1c0-2.42.08-4.57,0-6.69a41.9,41.9,0,0,0-5.94-20.45c-2.61-4.24-5.5-7.58-9-9-.37-.14-.74-.31-1.11-.47h-2.84a31.26,31.26,0,0,0-3.38,1.39c-4.21,2.25-7.29,7.2-9.75,13.56-.44,1.15-.89,2.29-1.29,3.49-.27.78-.55,1-1.08.89a34.65,34.65,0,0,1-11.39-5.52,32.74,32.74,0,0,0-9.45-4.56c-8.12-2.71-16.32-4.13-24.52-5.54a10.72,10.72,0,0,0-8.52,1.7c-2.41,1.7-5,2.52-7.32,4.84-.18.19-.53.1-.75-.07a9.93,9.93,0,0,1-1.63-1.51c-1-1.27-2.07-1-3,.15a8.74,8.74,0,0,0-1.55,2.65,13.76,13.76,0,0,1-3.78,5.93,17.7,17.7,0,0,0-4.63,6.67,8.57,8.57,0,0,1-1.85,2.73c-2.19,2.23-3.67,5.54-4.46,9.71-.85,4.42-1.7,8.89-2.19,13.47a36.5,36.5,0,0,0,2.68,18.27q1.91,4.45,4,8.6C231-77.88,236.14-67.58,242-58.47c1.52,2.38,3.23,4.38,4.8,6.69a37,37,0,0,1,2.88,4.89c.93,2,1.64,4.27,2.54,6.29a27.44,27.44,0,0,0,1.88,3.08,4.88,4.88,0,0,1,.4.86c.09.25.08.67.19.81,1.22,1.55,1.19,4.17,1.67,6.33a2.9,2.9,0,0,1-.13,1.5c-2,4.22-4,8.37-5.9,12.58-.34.72-.66,1-1.18,1m.89-.52c3,0,6,1,9,0,22.43-12.68,43-29.16,67.16-36.46m-77,37c-4.12.64-7.7-2-11.21-5.52-4.41-4.49-8.91-8.73-13.43-12.89a8.58,8.58,0,0,0-6.17-2.66c-2.59.13-3.67,2.93-2.79,7.3.1.52.21,1,.37,1.74a10.68,10.68,0,0,0-1.52.6c-1.53.85-3.07,1.68-4.56,2.7a1.47,1.47,0,0,1-1.58.2c-5-2.24-9.61-6.15-14.32-9.65-3.88-2.89-7.83-5.3-12-6.25a31.53,31.53,0,0,0-13.87.24c-10.37,2.26-19.42,10.12-27.69,21.24-2.11,2.84-4,6.14-6.23,8.76-3.92,4.69-7.92,9.21-12,13.43-2.62,2.7-5.5,4.54-8.15,7.12a60.82,60.82,0,0,0-4.7,5.88,2.55,2.55,0,0,0-.6,1.15c2.39-3.11,4.81-6,7.7-7.44-.23.31-.45.63-.68.92A49,49,0,0,0,109.07,23a41.31,41.31,0,0,1-8.72,12.57c-.82.8-1.64,1.65-2.46,2.47,0,.15.08.29.11.44l8.63-6.62c-3.64,5.43-7.69,9.24-11.46,13.83,3.88-2.93,7.84-5.61,11.47-9.71-.91,1.54-1.77,3.16-2.73,4.59s-2,2.79-3.07,4.1-2.09,2.45-3.14,3.68-2.12,2.53-3.14,4L100,48.44c-6,6.82-9.62,16.82-12.42,28.08,1.23-2.87,2.45-5.79,3.71-8.62A22.63,22.63,0,0,1,96,61.1c-3,7-4,15.21-4.57,23.71,1.74-9,3.14-18.4,6.78-25.87l-.84,3.64C95.22,71.8,93.25,81.13,91,90.2c-1.76,7-3.87,13.69-5.94,20.41-3.47,11.29-8.6,19.3-15.23,24.22a44,44,0,0,0-4.31,3.6,4.28,4.28,0,0,0,.55-.23c2.11-1.24,4.23-2.42,6.32-3.74,5.31-3.36,9.16-10,12.26-18.15,1.66-4.37,3.26-8.81,4.89-13.22a5.18,5.18,0,0,1,.66-1.38c-.11.42-.2.87-.32,1.28-1.87,6-3.7,11.94-5.62,17.84-3,9.25-7.45,15.16-13.19,17.92-5.25,2.51-10.51,5-15.76,7.49a21.8,21.8,0,0,0-8.35,6.85c.24-.07.34-.06.41-.13,4.1-4.36,8.63-6.06,13.3-7,2.32-.48,4.61-1.3,6.91-2a1.41,1.41,0,0,1,.84,0c-5.12,3.8-10.24,7.66-15.57,10.38s-10.78,5-16.11,7.49a20.14,20.14,0,0,0,2.05,0,9.64,9.64,0,0,0,2.23-.42c4-1.37,8.06-2.83,12.09-4.16,2-.68,4.11-1.16,6.39-1.79a35.77,35.77,0,0,0-4.28,3.73,29.92,29.92,0,0,0-3.63,5.42c-1.06,2-1.89,4.36-2.81,6.56l.28.44c.94-1.78,1.85-3.62,2.83-5.33,1.88-3.27,4.1-5.41,6.68-6.34,3.32-1.21,6.37-3.75,9.38-6.41,3.17-2.79,6.3-5.68,9.45-8.52.23-.21.47-.39.88-.73-3.58,4.12-7,7.89-10.37,12s-6.49,8.53-9.73,12.82l.12.32L69.35,156l.2.53c-4.29,5.35-8.55,10.81-12.9,16s-9.09,9.14-13.81,13.13a38.27,38.27,0,0,0,11.37-8.35c3.57-3.6,7.11-7.31,10.71-10.82-1.56,2.17-3.14,4.29-4.68,6.53a74.25,74.25,0,0,0-7.5,13.56A33.54,33.54,0,0,0,50.06,197a22.85,22.85,0,0,0,0,2.62,28.72,28.72,0,0,1,4.26-13.83,70.68,70.68,0,0,1,4.54-6.33c6.24-7.76,12.2-16.18,18.07-24.81a2.83,2.83,0,0,1,.69-.76c-4.25,7.38-8.65,14.51-11.72,23.76,4.53-10,10-18.24,15.34-26.87-6.7,13.09-13.45,26.1-19,41,3.15-6.71,6.2-13.59,9.49-20.06s6.75-12.88,10.37-18.83,7.54-11.32,11.32-16.94l.15.31q-4.83,7.75-9.64,15.52l.16.33c1.1-1.77,2.21-3.54,3.3-5.32a121.87,121.87,0,0,1,13.47-17.28c3.48-3.9,6.89-8.07,10.16-12.51,3.74-5.09,6.43-11.58,7-20.84.31.76.48,1.1.6,1.49a72.8,72.8,0,0,0,12.93,24c2.65,3.31,5,7.53,7.39,11.39a3.4,3.4,0,0,1,.17,1.59,71.55,71.55,0,0,1-6.93,25c-2.29,4.62-4.59,9.24-7.07,13.52-4.6,7.9-3,19.19,2,23.56,2.26,2,4.67,3.46,7,5.39,10.06,8.51,20.25,16.58,29.77,27,3.15,3.45,6.12,7.42,9.13,11.26a26.08,26.08,0,0,1,2.25,3.77,5.37,5.37,0,0,0,2.37,2.59c1.37.6,2.08,2.74,2.88,4.52a2,2,0,0,1-.49,2.21c-1.47,1.11-1.67,3.45-1.73,5.81-.05,2,.1,4.06.16,6.05-.3.12-1,0-1.09.49a10.52,10.52,0,0,0-.23,2.87,11.69,11.69,0,0,0,.32,2.31c1.61,7.28,3.74,13.92,7.12,19.06,2.26,3.44,3.78,3.11,5-1.77,1.29-5.05,2.17-10.45,3.34-15.61a36.14,36.14,0,0,0,.29-12.19c-.21-1.85-.29-3.75-.44-5.78.18.15.31.2.4.33,5.3,7.66,10.63,15.26,15.89,23a45.91,45.91,0,0,1,2.81,5.66c1.23,2.57,2.39,5.18,4.49,5.69,1.29.32,2.16,2.21,2.87,4.09.57,1.51,1,3.2,1.52,4.91-.45.57-.83,1.07-1.22,1.53-1.84,2.19-2.41,5.33-2.05,9.11.1,1,.28,2,.41,3.05a13.7,13.7,0,0,1,.11,3.86,9.57,9.57,0,0,0,.52,4.34,56.06,56.06,0,0,0,3.88,7.54c2.47,4,5.38,6.48,8.69,7.35h2l.79-.43c1.28-.71,1.7-1.83,1.52-4.21q-.9-12-1.84-24a6.52,6.52,0,0,0-.16-1c-.74-3.16-1.45-6.35-2.24-9.48s-1.58-6.05-2.48-9a72.5,72.5,0,0,1-3.51-15.89,7,7,0,0,0-1.53-3.92c-2.3-3-4.56-6.05-6.83-9.09a3.47,3.47,0,0,1-.45-.84,17,17,0,0,1,6.11,5.56c1.66,2.47,3.2,5.24,4.75,7.94a4.73,4.73,0,0,0,3.15,2.66,119.35,119.35,0,0,1,27.07,9,31.51,31.51,0,0,1,4.64,2.83c1.9,1.29,3.81,1.49,5.7.17s3.64-2.63,5.42-4.13c3.11-2.62,4.55-7.36,4.48-13.28-.14-11.18,1-22.08,2-33,.83-9.09,2-18.1,3-27.15.14-1.27.31-2.55.33-3.84a18.34,18.34,0,0,1,3.41-10.33c2.12-3.24,4.69-5.12,7.19-7.14,4.07-3.29,8.17-6.49,12.27-9.68a1.17,1.17,0,0,1,1.19-.16c2,.92,4,1.93,5.92,2.94a5.88,5.88,0,0,1,1.33.83c7.1,6.41,14.64,10.63,22.17,15,2.64,1.52,5.2,3.55,7.87,4.79,2.45,1.14,3.91,4.14,5.32,7.43a10.77,10.77,0,0,1,.1,8,107.29,107.29,0,0,1-8.22,18,46.62,46.62,0,0,1-7.51,10.59,14.78,14.78,0,0,1-3.31,2.37c-1.16.63-2.2,1.27-2.12,4.16a14.85,14.85,0,0,1-3.14-.45c-.47-.17-.94-1-1.26-1.7-.45-1-.7-2.27-1.14-3.28-.71-1.64-1.52-1.87-2.57-1.1-.82.6-1.65,1.35-2.42-.24a.52.52,0,0,0-.56-.21,12.5,12.5,0,0,0-2.3.58c-1.16.48-1.44,1.05-2.29,4.11l-1-.41c.13-.76.29-1.44.35-2.15.08-1-.27-1.53-.74-1-3.14,3.57-6.41,6.93-8.59,12.59-1.91,4.95-.86,9.46,2.47,10.39a65.11,65.11,0,0,0,7.29,1.19,4.1,4.1,0,0,1,1.32.35,6.29,6.29,0,0,0,4.7.32,28.45,28.45,0,0,1,6.84-1.38c2.14-.05,4.29.72,6.43,1.17.63.13,1.26.37,1.89.56,2.09.66,3.81-.59,5.05-3.6,4.68-11.34,10.16-21.42,15.39-31.91.48-1,.94-2,1.47-2.85a22.12,22.12,0,0,1,1.82-2.57c2.09-2.51,3.49-6.09,4.78-9.83a4.46,4.46,0,0,0,.16-1.3c0-3.13,0-6.27.12-9.41a55.87,55.87,0,0,0-.66-10.22,18.54,18.54,0,0,0-2.8-7.61,17.8,17.8,0,0,0-1.46-2c-3.61-3.73-6.52-8.92-9.37-14.27-3-5.59-6-11-9.08-16.53a63.57,63.57,0,0,1-4.54-11.23,2.07,2.07,0,0,1,.22-1.79c2.45-5.62,4.94-11.18,7.33-16.87,3.15-7.47,3.94-16,3.35-25.11-.34-5.21-.56-10.44-.77-15.67a54.22,54.22,0,0,1,2.24-18q7.11-23.58,15.46-45.79c.28-.74.62-1.41.9-2.15,2.53-6.72,6.33-9.78,10.49-11.79.23-.11.61.13.78.45q1.4,2.48,2.7,5.09a4.16,4.16,0,0,1,.27,1.31c.07.63.05,1.3.15,1.91.4,2.5,1.44,3.35,2.7,2.12.44-.44.75-.51,1.19,0C383,22,384.4,22,385.8,20.76c.49-.44,1-.83,1.56-1.3.25,1.49.45,2.8.71,4.07a2.66,2.66,0,0,0,.5,1.1c.41.52.88.87,1.28,1.41.54.72,1,.9,1.67.27a.58.58,0,0,1,.76,0c2.59,2.24,5.18,4.52,7.77,6.79l.21.23a1,1,0,0,1,0,.28c-.76,4.62.55,7.77,3.51,8.33a24.45,24.45,0,0,0,2.64.22c.11,2.06.31,4,.28,6a17.11,17.11,0,0,1-.62,3.64c-.25,1.09-.62,2.1-.86,3.21,1.36-1.44,2.07-1.31,3.6.44,1.13-1.75,2.24-3.34,3.25-5.09,1.62-2.79,1.77-3,3.33-.29s3.37,3,5.38,2a6,6,0,0,1,2.61-.62c1.36,0,2.46-.82,3.11-3,.24-.8.56-1.14,1.05-1.14,2.23,0,3.73-2.51,5.24-5a5.14,5.14,0,0,0,.51-3.16c-.08-.83-.25-1.65-.27-2.49a9.52,9.52,0,0,1,.17-2.72c.86-2.76,1.84-5.41,2.77-8.09v-2.1c-.52-1.41-1-2.93-1.56-4.21-3.53-7.53-7.05-15-10.64-22.47a127.18,127.18,0,0,1-9-26.26c-1.2-5.08-2.6-10-4-15a17.25,17.25,0,0,0-1.29-3.09,1.42,1.42,0,0,1,.05-1.62c.41-.59.83-1.16,1.4-2a9.9,9.9,0,0,0-1.87-1.83c-2.66-1.28-4.72-4.33-6.77-7.37-1.59-2.35-3.08-4.9-4.58-7.42a4.31,4.31,0,0,1-.54-1.89,3.61,3.61,0,0,0-.82-2.38c-1.15-1.51-2.3-2.81-3.83-2.08-.17.08-.43-.14-.59-.36-2-2.63-3.92-5.23-5.84-7.95-.83-1.16-1.54-2.59-2.32-3.86-1.75-2.85-3.49-5.71-5.26-8.49-.65-1-1.21-.8-1.68.48a17,17,0,0,0-.8,6.17c0,.79.07,1.58.11,2.58-4.87-3.41-8.8-8.81-12.08-15.92.07.39.13.78.2,1.17.74,3.87,1.54,7.7,2.2,11.61a50.82,50.82,0,0,0,4.41,13.77l.75,1.55-4.88,4.48L353-97.19l-.16.22c1.28,3.3,2.59,6.55,3.82,9.9S359-80.32,360-76.77c-3.35-5.83-6.43-12.14-10.65-16.52l1.84,6.37c-3.62-5.73-6.9-12.09-11.33-15.83a103.29,103.29,0,0,1,10.26,17.16c-4.57-6.1-9.27-11.62-15.36-11,.56.22,1.08.44,1.61.64s1.14.41,1.71.64c6,2.48,10.3,9,12.95,18.92.61,2.33.85,5,1.31,7.72L347-73l-.06.27,1.7,3.4L341-73.78c0,.16-.07.32-.1.47,2,1.9,4.34,2.87,6,6-4.05-2.25-7.58-6.43-11.42-9.56l8.18,10.69L318.77-77.65l-.06.4,15.18,10.73-.06.23-8.07-3.34,0,.29L336-62.19c0,.16-.07.33-.1.49-4.11-2.3-8.17-5-12.71-6.14,2.13,2,4,3.84,6,5.65l-.09.39c-4-3.46-8-6.89-12.54-7.39A57.72,57.72,0,0,1,329-56.4l-8.61-4.76-.09.48c2.71,1.62,5.49,3,7.57,5.81l-8.79-3.3c0,.13,0,.26-.05.39,2.78,1.82,5.76,2.85,8.26,6.08.23-.07.47-.15.71-.21-.24.06-.48.14-.71.21.25.33.51.68.76,1.06-.64-.26-1.26-.5-1.89-.73C302-44.07,281.42-27.59,259-14.91c-3,1-6,0-9,0M294.3-78.48c.93-1.15,1.89-2.23,2.85-3.3s1.25-1,1.43,1c.38,4.38.58,8.82,1.05,13.17.34,3.16,1,6.2,1.49,9.31.32,2,.51,4,.91,5.88.48,2.32,1.12,4.53,1.7,6.78.15.57.34,1.09.6,1.9a8.45,8.45,0,0,1-1.12-.44,16,16,0,0,1-5.78-5.35,7.79,7.79,0,0,0-2.2-2c-.53-.4-.79-.86-.73-2a18.29,18.29,0,0,0-.14-3,8.82,8.82,0,0,1,.29-4.15,9.69,9.69,0,0,0,0-2.87c0-1.13-.2-2.24-.24-3.37-.15-3.48-.27-7-.38-10.44A2.51,2.51,0,0,1,294.3-78.48ZM174.81,165.16A285.43,285.43,0,0,1,165,205.3c-.06.17-.13.33-.24.61a7.44,7.44,0,0,1-.82-.58c-3.44-3.21-6.92-6.31-10.3-9.72a24.25,24.25,0,0,1-3.64-5.15,14.08,14.08,0,0,1-.93-10.62c1.31-5,3.13-9.31,5.95-11.7,3.08-2.6,5.47-6.62,7.72-11,3.17-6.15,6.28-12.4,9.42-18.6.69-1.38,1.37-1.47,1.82.19a54.74,54.74,0,0,1,1.5,7.23A62.52,62.52,0,0,1,174.81,165.16Zm88.31,99.25c-.16.24-.45.23-.69.26-3.11.39-6.13-.81-9.14-1.94-3.75-1.41-7.49-2.92-11.23-4.35-1.21-.46-2.24-1.2-2.46-3.76a1,1,0,0,0-.47-.71c-2.63-1.53-5.28-3-7.92-4.54a3.76,3.76,0,0,1-1.06-1.05c-.73-1-1.47-1.93-2.43-1.5a8.44,8.44,0,0,0-1.6,1.25,27.78,27.78,0,0,0-2.71-2.19c-2.6-1.66-3.46-5.35-3.76-9.85-.12-1.82-.33-3.64-.62-5.4s-1.07-2.63-2.18-2.88a22.34,22.34,0,0,1-3.76-1.64.59.59,0,0,0-.66.09,8,8,0,0,0-.83,1.23c-1,1.65-2,3.32-3,5-.07.12-.19.14-.28.19s-.14-.13-.15-.2c-.43-2.68-.43-2.68-1.71-1s-2.78,3.65-4.2,5.42c-.21.26-.67.43-.83.21-2.87-3.86-5.71-7.78-8.56-11.69-2-2.82-2.82-6.68-2.72-11.18a101.88,101.88,0,0,1,3-23.15,76.38,76.38,0,0,1,5.67-15.79,50.86,50.86,0,0,0,3.73-11.09q2.7-11.26,5.35-22.57c.14-.59.28-1.18.46-2,.3.23.56.46.82.66,2.7,2,5.41,3.87,8.07,6,2.07,1.65,4.07,3.6,6.11,5.39a14.89,14.89,0,0,0,2,1.57,54.62,54.62,0,0,0,18.27,7,11,11,0,0,1,4.44,1.57,1.52,1.52,0,0,1,.56.88c.77,4,2.45,5.82,4.68,6,.9.09,1.24.69,1.62,2.17,1.79,6.86,2.51,14.26,3.35,21.54.68,5.93.84,12.07,1.15,18.13.58,11.38,1,22.78,1.69,34.15a85.51,85.51,0,0,0,2.39,15.68A7.31,7.31,0,0,1,263.12,264.41Zm115.38-248c.65.89,1.21,1.67,1.83,2.51C379.13,19.92,378.51,19.08,378.5,16.41Zm28.31,23.52a13.35,13.35,0,0,1-4-.44c-1.79-.6-2.25-2.28-1.72-5.62l6.57,4.65.09.48C407.42,39.32,407.12,39.94,406.81,39.93Z"/>
  <path class="cls-7" d="M725.86,80.55a32.68,32.68,0,0,1-4.55-2,53.08,53.08,0,0,1-5.9-4.26,2.23,2.23,0,0,1-.51-1.25c-.3-2.85-.6-5.71-.79-8.59-.1-1.52.08-3.08,0-4.62-.06-1.81-.21-3.62-.34-5.43,0-.24-.12-.46-.13-.7-.32-4-.53-8,.7-11.87.34.52.65,1,1,1.44,1.74,2.52,3.44,2.52,5.19.07.3-.41.66-.85,1-.93,1.24-.29,1.68-1.82,1.82-3.71.09-1.32.47-1.75,1.11-1.61s1-.29,1.23-1.46a.94.94,0,0,1,.57-.66c.32-.08.66.1,1,.08,1-.07,1.37-.75,1.43-2.46s.11-3.59.09-5.38a3.39,3.39,0,0,1,.71-2.51,15.4,15.4,0,0,0,3.64-7.18c.1-.35.46-.49.7-.71,0,0,.11,0,.17,0,2.63.7,3.39-1.25,3.52-6.08V9.69c1.11-.63,2.23-1.2,3.32-1.86a7.15,7.15,0,0,0,3.22-3.26l-5.8-1c0-2.42.08-4.56,0-6.68a41.84,41.84,0,0,0-5.94-20.45c-2.61-4.24-5.5-7.59-9-9L722.2-33h-2.83A35,35,0,0,0,716-31.6c-4.21,2.26-7.29,7.21-9.75,13.57-.44,1.14-.89,2.28-1.29,3.48-.27.79-.55,1-1.08.89a34.45,34.45,0,0,1-11.39-5.52A32.7,32.7,0,0,0,683-23.73c-8.12-2.72-16.32-4.14-24.52-5.55a10.72,10.72,0,0,0-8.52,1.7c-2.41,1.71-5,2.52-7.32,4.84-.18.19-.53.1-.75-.07a9.86,9.86,0,0,1-1.63-1.5c-1-1.28-2.07-1-3,.14a8.74,8.74,0,0,0-1.55,2.65,13.76,13.76,0,0,1-3.78,5.93,17.66,17.66,0,0,0-4.63,6.68,8.52,8.52,0,0,1-1.85,2.72C623.25-4,621.77-.65,621,3.53c-.85,4.42-1.7,8.89-2.19,13.46a36.5,36.5,0,0,0,2.68,18.27c1.27,3,2.61,5.85,4,8.6C630.7,54,635.85,64.35,641.66,73.45c1.52,2.39,3.23,4.39,4.8,6.69A37.7,37.7,0,0,1,649.34,85c.93,2,1.64,4.28,2.54,6.29a27.44,27.44,0,0,0,1.88,3.08,4.67,4.67,0,0,1,.4.87c.09.24.08.66.19.8,1.22,1.56,1.19,4.17,1.67,6.33a2.94,2.94,0,0,1-.13,1.51c-2,4.21-3.95,8.36-5.9,12.58-.34.72-.66,1-1.18,1.05m.89-.53c3,0,6,1,9,0,22.43-12.68,43-29.16,67.16-36.46m-77.05,37c-4.12.63-7.7-2-11.2-5.53-4.42-4.48-8.92-8.72-13.44-12.88A8.54,8.54,0,0,0,618,96.47c-2.59.13-3.67,2.92-2.79,7.3.1.51.21,1,.37,1.73a12,12,0,0,0-1.52.6c-1.53.86-3.07,1.68-4.56,2.7a1.45,1.45,0,0,1-1.58.2c-5-2.24-9.61-6.14-14.32-9.65-3.88-2.89-7.83-5.3-12-6.25a31.68,31.68,0,0,0-13.87.24c-10.37,2.27-19.42,10.13-27.69,21.25-2.11,2.83-4,6.14-6.23,8.75-3.92,4.69-7.92,9.22-12,13.44-2.62,2.7-5.5,4.54-8.15,7.12a60.66,60.66,0,0,0-4.7,5.87,2.55,2.55,0,0,0-.6,1.15c2.39-3.11,4.81-6,7.7-7.44-.23.31-.45.64-.68.92A49.24,49.24,0,0,0,508.78,155a41.19,41.19,0,0,1-8.72,12.57c-.82.8-1.64,1.65-2.46,2.48,0,.14.08.29.11.43l8.63-6.61c-3.64,5.42-7.69,9.24-11.46,13.83,3.88-2.94,7.84-5.62,11.47-9.72-.91,1.54-1.77,3.16-2.73,4.59s-2,2.8-3.07,4.1-2.09,2.45-3.14,3.69-2.12,2.53-3.14,4q2.72-2,5.41-3.92c-5.95,6.83-9.62,16.83-12.42,28.08,1.23-2.87,2.45-5.78,3.71-8.61a22.68,22.68,0,0,1,4.71-6.81c-3,7-4,15.21-4.57,23.72,1.74-9.05,3.14-18.4,6.78-25.87l-.84,3.64c-2.12,9.21-4.09,18.55-6.39,27.61-1.76,7-3.87,13.69-5.94,20.41-3.47,11.3-8.6,19.3-15.23,24.22a45.42,45.42,0,0,0-4.31,3.6,3.22,3.22,0,0,0,.55-.23c2.11-1.23,4.23-2.41,6.32-3.74,5.31-3.36,9.16-10,12.26-18.14,1.66-4.38,3.26-8.81,4.89-13.22a5.1,5.1,0,0,1,.66-1.39c-.11.43-.2.87-.32,1.28-1.87,6-3.7,11.94-5.61,17.84-3,9.26-7.46,15.17-13.2,17.92-5.25,2.51-10.51,5-15.76,7.5a21.77,21.77,0,0,0-8.35,6.84c.24-.07.34-.05.41-.12,4.1-4.37,8.63-6.07,13.3-7,2.32-.48,4.61-1.3,6.91-2a1.49,1.49,0,0,1,.84,0c-5.12,3.81-10.24,7.66-15.57,10.39s-10.78,5-16.11,7.49a20.28,20.28,0,0,0,2.05,0,9.64,9.64,0,0,0,2.23-.42c4-1.36,8.06-2.83,12.09-4.16,2.05-.68,4.11-1.16,6.39-1.78a34.84,34.84,0,0,0-4.28,3.72,30.45,30.45,0,0,0-3.63,5.42c-1.06,2-1.88,4.36-2.81,6.56l.28.45c.94-1.78,1.85-3.62,2.83-5.33,1.88-3.28,4.11-5.41,6.68-6.35,3.32-1.2,6.37-3.75,9.38-6.41,3.17-2.79,6.3-5.68,9.45-8.52.23-.21.47-.39.88-.72-3.58,4.12-7,7.88-10.37,12s-6.49,8.54-9.73,12.83l.12.31L469.06,288l.2.52c-4.29,5.35-8.55,10.82-12.9,16s-9.09,9.14-13.81,13.14a38.31,38.31,0,0,0,11.37-8.36c3.57-3.6,7.11-7.31,10.72-10.82-1.57,2.17-3.15,4.3-4.69,6.53a74,74,0,0,0-7.5,13.57,33.39,33.39,0,0,0-2.68,10.34,22.8,22.8,0,0,0,0,2.62A28.69,28.69,0,0,1,454,317.68a70.86,70.86,0,0,1,4.54-6.34c6.24-7.76,12.2-16.18,18.07-24.81a3,3,0,0,1,.69-.76c-4.25,7.38-8.65,14.51-11.72,23.77,4.53-10,10.05-18.24,15.34-26.88-6.7,13.09-13.45,26.11-19,41,3.15-6.7,6.2-13.59,9.49-20.06s6.75-12.87,10.37-18.83,7.54-11.31,11.32-16.94l.15.31-9.64,15.52.16.33c1.1-1.77,2.21-3.54,3.3-5.31a122,122,0,0,1,13.47-17.29c3.48-3.9,6.89-8.06,10.16-12.51,3.74-5.09,6.43-11.58,7-20.84.31.76.48,1.1.6,1.49a72.7,72.7,0,0,0,12.93,24c2.65,3.31,5,7.53,7.39,11.39a3.44,3.44,0,0,1,.17,1.6,71.43,71.43,0,0,1-6.93,25c-2.29,4.62-4.59,9.25-7.07,13.52-4.6,7.91-3,19.19,2,23.56,2.26,2,4.67,3.46,7,5.39,10.06,8.51,20.25,16.58,29.77,27,3.15,3.45,6.12,7.43,9.13,11.26a25.21,25.21,0,0,1,2.25,3.77,5.39,5.39,0,0,0,2.37,2.6c1.37.6,2.08,2.73,2.88,4.51a2,2,0,0,1-.49,2.21c-1.47,1.12-1.67,3.46-1.73,5.82,0,2,.1,4,.16,6-.3.12-.95.05-1.09.49a10.55,10.55,0,0,0-.23,2.87,12.71,12.71,0,0,0,.32,2.32c1.61,7.27,3.74,13.92,7.12,19.06,2.26,3.44,3.78,3.11,5-1.77,1.29-5.06,2.17-10.45,3.34-15.61a36.14,36.14,0,0,0,.29-12.19c-.21-1.85-.29-3.75-.44-5.79.18.15.31.2.4.34,5.3,7.65,10.63,15.26,15.89,23a46.07,46.07,0,0,1,2.81,5.67c1.23,2.56,2.39,5.17,4.49,5.68,1.29.32,2.16,2.21,2.87,4.09.57,1.52,1,3.21,1.52,4.92-.45.57-.83,1.06-1.21,1.52-1.85,2.2-2.42,5.33-2.06,9.11.1,1,.28,2,.41,3.05a13.76,13.76,0,0,1,.11,3.87,9.53,9.53,0,0,0,.52,4.33,56.2,56.2,0,0,0,3.88,7.55c2.47,4,5.38,6.48,8.69,7.34h2l.79-.43c1.28-.7,1.7-1.83,1.52-4.21q-.9-12-1.84-24a6.65,6.65,0,0,0-.16-1c-.74-3.16-1.45-6.35-2.24-9.47s-1.58-6.06-2.48-9A72.5,72.5,0,0,1,624.78,403a7,7,0,0,0-1.53-3.92c-2.3-3-4.56-6-6.83-9.09a3.4,3.4,0,0,1-.45-.83,17,17,0,0,1,6.11,5.55c1.66,2.48,3.2,5.24,4.75,7.95a4.73,4.73,0,0,0,3.15,2.66c9.16,1.67,18.15,4.95,27.07,8.94a32.13,32.13,0,0,1,4.65,2.83,4.64,4.64,0,0,0,5.69.18c1.83-1.27,3.64-2.63,5.42-4.13,3.11-2.62,4.55-7.36,4.48-13.29-.14-11.18,1-22.07,2-33,.83-9.1,2-18.1,3-27.15.14-1.27.31-2.56.33-3.84A18.34,18.34,0,0,1,686,325.54c2.12-3.23,4.69-5.11,7.19-7.14,4.07-3.29,8.17-6.49,12.27-9.67a1.16,1.16,0,0,1,1.19-.17c2,.92,4,1.94,5.92,2.94a5.59,5.59,0,0,1,1.33.84c7.1,6.4,14.64,10.63,22.17,15,2.64,1.51,5.2,3.54,7.87,4.79,2.45,1.14,3.91,4.13,5.32,7.43a10.76,10.76,0,0,1,.1,8.05,107.54,107.54,0,0,1-8.22,18,46.92,46.92,0,0,1-7.51,10.6,14.73,14.73,0,0,1-3.31,2.36c-1.16.63-2.2,1.27-2.12,4.16a14.24,14.24,0,0,1-3.14-.45c-.47-.17-.94-1-1.26-1.69-.45-1-.7-2.27-1.14-3.29-.71-1.64-1.52-1.87-2.57-1.09-.82.59-1.65,1.35-2.42-.25a.5.5,0,0,0-.56-.2,11.72,11.72,0,0,0-2.3.57c-1.16.49-1.44,1.06-2.29,4.11l-1-.41c.13-.76.29-1.44.35-2.15.08-1-.27-1.52-.74-1-3.14,3.58-6.41,6.94-8.59,12.59-1.91,5-.86,9.46,2.47,10.39a65.14,65.14,0,0,0,7.29,1.2,4.36,4.36,0,0,1,1.32.34,6.34,6.34,0,0,0,4.7.33,28.48,28.48,0,0,1,6.84-1.39c2.14,0,4.29.73,6.43,1.17a19.39,19.39,0,0,1,1.89.57c2.09.65,3.81-.59,5-3.61,4.68-11.34,10.16-21.42,15.39-31.91.48-1,.94-2,1.47-2.85a22.12,22.12,0,0,1,1.82-2.57c2.09-2.51,3.49-6.09,4.78-9.83a4.39,4.39,0,0,0,.16-1.29c0-3.14,0-6.28.12-9.42a55.76,55.76,0,0,0-.66-10.21,18.44,18.44,0,0,0-2.8-7.62,16.79,16.79,0,0,0-1.46-2c-3.61-3.74-6.52-8.93-9.37-14.28-3-5.59-6-11-9.08-16.52a63.68,63.68,0,0,1-4.54-11.24,2.08,2.08,0,0,1,.22-1.79c2.45-5.61,4.94-11.18,7.33-16.87,3.15-7.46,3.94-16,3.35-25.11-.34-5.2-.56-10.43-.77-15.66a54.28,54.28,0,0,1,2.24-18q7.11-23.56,15.46-45.79c.28-.74.62-1.41.9-2.15,2.53-6.72,6.33-9.77,10.49-11.79.23-.11.61.14.78.45.93,1.65,1.83,3.36,2.7,5.09a4.17,4.17,0,0,1,.27,1.32c.07.62,0,1.29.15,1.91.4,2.49,1.44,3.34,2.7,2.11.44-.44.75-.5,1.19,0,1.33,1.49,2.71,1.53,4.12.25.48-.44,1-.83,1.55-1.3.25,1.5.45,2.81.71,4.08a2.82,2.82,0,0,0,.5,1.09c.41.52.88.88,1.28,1.41.54.73,1.06.9,1.67.27a.58.58,0,0,1,.76,0c2.6,2.23,5.18,4.51,7.77,6.79.07.06.14.15.21.22a1,1,0,0,1,0,.29c-.76,4.62.55,7.77,3.51,8.32a22.3,22.3,0,0,0,2.64.23c.11,2.06.31,4,.28,6a17.13,17.13,0,0,1-.62,3.63c-.25,1.09-.62,2.1-.86,3.21,1.36-1.43,2.07-1.3,3.6.45,1.13-1.76,2.24-3.34,3.25-5.1,1.62-2.79,1.77-3,3.33-.29s3.37,3,5.38,2a6,6,0,0,1,2.61-.63c1.36,0,2.46-.81,3.11-3,.24-.81.56-1.15,1-1.15,2.23,0,3.73-2.51,5.24-5A5.17,5.17,0,0,0,833,171c-.08-.83-.25-1.65-.27-2.49a9.55,9.55,0,0,1,.17-2.72c.86-2.75,1.84-5.4,2.77-8.09v-2.1c-.52-1.41-1-2.93-1.56-4.21-3.53-7.52-7-15-10.64-22.46a127.39,127.39,0,0,1-9-26.26c-1.2-5.09-2.6-10-4-15a17.67,17.67,0,0,0-1.29-3.1,1.42,1.42,0,0,1,0-1.62l1.4-2c-.69-.69-1.24-1.52-1.87-1.82-2.66-1.29-4.72-4.33-6.77-7.38-1.59-2.35-3.08-4.89-4.58-7.42a4.27,4.27,0,0,1-.54-1.88,3.62,3.62,0,0,0-.82-2.39c-1.15-1.5-2.3-2.81-3.83-2.07-.17.08-.43-.15-.59-.37-2-2.62-3.92-5.23-5.84-7.94-.83-1.17-1.54-2.6-2.32-3.87-1.75-2.85-3.49-5.7-5.26-8.49-.65-1-1.21-.8-1.68.49a17,17,0,0,0-.8,6.17c0,.79.07,1.58.11,2.57-4.87-3.41-8.8-8.81-12.08-15.91.07.39.13.78.2,1.16.74,3.87,1.54,7.7,2.2,11.61a50.7,50.7,0,0,0,4.41,13.77l.75,1.55-4.88,4.49L752.67,34.73l-.16.23c1.28,3.29,2.59,6.54,3.82,9.89s2.34,6.75,3.38,10.3c-3.35-5.83-6.43-12.14-10.65-16.51.66,2.27,1.25,4.32,1.84,6.36-3.62-5.73-6.9-12.09-11.33-15.83a103.7,103.7,0,0,1,10.26,17.16c-4.57-6.1-9.27-11.62-15.36-11l1.61.65c.57.21,1.14.4,1.71.64,6,2.48,10.3,9,13,18.92.61,2.32.85,5,1.31,7.72l-5.33-4.35-.06.27,1.7,3.4-7.61-4.39c0,.15-.07.31-.1.47,2,1.89,4.34,2.87,6,6-4-2.24-7.58-6.42-11.42-9.55l8.18,10.69L718.48,54.28l-.06.39L733.6,65.4l-.06.24-8.07-3.35,0,.29,10.23,7.15c0,.17-.06.33-.1.49-4.11-2.3-8.17-5-12.71-6.13l6,5.65-.09.39c-4-3.46-8-6.9-12.54-7.39A57.45,57.45,0,0,1,728.7,75.52l-8.61-4.75-.09.48c2.71,1.61,5.49,3,7.57,5.81l-8.79-3.3c0,.13,0,.25,0,.38C721.51,76,724.49,77,727,80.22l.71-.21-.71.21c.25.33.51.68.76,1.07l-1.89-.74c-24.19,7.3-44.73,23.78-67.16,36.46-3,1-6,0-9,0M694,53.44c.93-1.15,1.89-2.22,2.85-3.29s1.25-1,1.43,1.05c.38,4.38.59,8.81,1.05,13.16.34,3.16,1,6.21,1.49,9.31.32,2,.51,4,.91,5.89.48,2.31,1.12,4.53,1.7,6.77.15.57.34,1.09.6,1.9a8.61,8.61,0,0,1-1.12-.43,16.12,16.12,0,0,1-5.78-5.36,7.79,7.79,0,0,0-2.2-2c-.53-.4-.79-.86-.73-2a18.34,18.34,0,0,0-.14-3,8.78,8.78,0,0,1,.29-4.14,9.69,9.69,0,0,0,0-2.87c0-1.13-.2-2.25-.24-3.38-.15-3.48-.27-7-.38-10.44A2.51,2.51,0,0,1,694,53.44ZM574.52,297.09a286.12,286.12,0,0,1-9.83,40.14c-.06.17-.13.32-.24.61-.3-.22-.57-.36-.82-.58-3.44-3.22-6.92-6.32-10.3-9.72a24.51,24.51,0,0,1-3.64-5.15,14.1,14.1,0,0,1-.93-10.63c1.31-5,3.13-9.3,6-11.7,3.08-2.6,5.47-6.62,7.72-11,3.17-6.15,6.28-12.39,9.42-18.6.69-1.37,1.37-1.46,1.82.19a54.89,54.89,0,0,1,1.5,7.24A62.54,62.54,0,0,1,574.52,297.09Zm88.31,99.24c-.16.24-.45.23-.69.26-3.11.4-6.13-.81-9.14-1.94-3.75-1.4-7.49-2.91-11.23-4.35-1.21-.46-2.24-1.19-2.46-3.76a1.07,1.07,0,0,0-.47-.71c-2.63-1.53-5.28-3-7.92-4.54a3.86,3.86,0,0,1-1.06-1c-.73-1-1.47-1.93-2.43-1.51a8.87,8.87,0,0,0-1.6,1.25,31.09,31.09,0,0,0-2.71-2.19c-2.6-1.66-3.46-5.34-3.76-9.85-.12-1.82-.33-3.64-.62-5.39s-1.07-2.64-2.18-2.88A23.19,23.19,0,0,1,612.8,358a.59.59,0,0,0-.66.08,7.41,7.41,0,0,0-.82,1.24l-3,4.95c-.07.12-.19.14-.28.2s-.14-.13-.15-.2c-.43-2.69-.43-2.68-1.71-1s-2.78,3.65-4.2,5.41c-.21.26-.67.43-.83.21-2.87-3.86-5.71-7.78-8.56-11.68-2-2.83-2.82-6.69-2.72-11.19a101.88,101.88,0,0,1,3-23.15,76.5,76.5,0,0,1,5.67-15.78,51.13,51.13,0,0,0,3.73-11.1c1.8-7.5,3.57-15,5.35-22.56l.46-2,.82.66c2.7,2,5.41,3.87,8.07,6,2.07,1.65,4.07,3.59,6.11,5.38a14.89,14.89,0,0,0,2,1.57,54.4,54.4,0,0,0,18.27,7,11,11,0,0,1,4.44,1.57,1.52,1.52,0,0,1,.56.88c.77,4,2.45,5.83,4.68,6,.9.09,1.24.69,1.62,2.18,1.79,6.86,2.51,14.25,3.35,21.54.68,5.93.84,12.06,1.15,18.12.58,11.38,1.06,22.79,1.69,34.16a85.53,85.53,0,0,0,2.39,15.67A7.3,7.3,0,0,1,662.83,396.33Zm115.38-248,1.83,2.51C778.84,151.84,778.22,151,778.21,148.34Zm28.31,23.51a13.35,13.35,0,0,1-4-.44c-1.79-.6-2.25-2.28-1.72-5.62l6.57,4.66.09.47C807.13,171.25,806.83,171.86,806.52,171.85Z"/>
  <path class="cls-7" d="M783.59,350.46a32.68,32.68,0,0,1-4.55-2,53.08,53.08,0,0,1-5.9-4.26,2.23,2.23,0,0,1-.51-1.25c-.29-2.85-.6-5.71-.79-8.59-.1-1.51.08-3.08,0-4.62,0-1.81-.21-3.62-.34-5.42,0-.25-.11-.47-.13-.71-.32-4-.53-8,.7-11.87.34.52.65,1,1,1.44,1.75,2.52,3.44,2.52,5.19.08.3-.42.66-.86,1-.94,1.24-.29,1.68-1.82,1.82-3.71.09-1.32.47-1.75,1.11-1.61s1-.29,1.23-1.46a.94.94,0,0,1,.57-.66c.32-.08.66.1,1,.08,1-.07,1.37-.74,1.43-2.46s.11-3.59.09-5.38a3.39,3.39,0,0,1,.71-2.51,15.4,15.4,0,0,0,3.64-7.18c.1-.35.46-.49.7-.71,0,0,.11,0,.17,0,2.63.7,3.4-1.25,3.52-6.08,0-.35,0-.69,0-1.08,1.12-.62,2.23-1.2,3.32-1.86a7.15,7.15,0,0,0,3.22-3.26l-5.8-1c0-2.41.08-4.56,0-6.68A41.84,41.84,0,0,0,790,246.36c-2.6-4.24-5.5-7.59-9-9l-1.11-.48H777.1a35,35,0,0,0-3.39,1.39c-4.21,2.26-7.29,7.21-9.75,13.57-.44,1.15-.89,2.29-1.29,3.48-.27.79-.55,1-1.08.89a34.4,34.4,0,0,1-11.38-5.52,32.88,32.88,0,0,0-9.46-4.55c-8.11-2.72-16.32-4.14-24.52-5.55a10.69,10.69,0,0,0-8.51,1.7c-2.42,1.71-5,2.52-7.32,4.84-.19.19-.54.1-.76-.07a9.86,9.86,0,0,1-1.63-1.5c-1-1.28-2.07-1-3,.14a8.74,8.74,0,0,0-1.55,2.65,13.76,13.76,0,0,1-3.78,5.93A17.66,17.66,0,0,0,685,261a8.52,8.52,0,0,1-1.85,2.72c-2.19,2.23-3.67,5.54-4.46,9.72-.85,4.42-1.7,8.89-2.19,13.46a36.61,36.61,0,0,0,2.68,18.27c1.27,3,2.61,5.85,4,8.6,5.21,10.18,10.36,20.49,16.17,29.59,1.53,2.39,3.23,4.39,4.8,6.69a37.7,37.7,0,0,1,2.88,4.89c.93,2,1.64,4.28,2.54,6.29a25.75,25.75,0,0,0,1.88,3.08,4.1,4.1,0,0,1,.4.87c.09.24.08.66.19.8,1.22,1.56,1.19,4.17,1.68,6.33a3,3,0,0,1-.14,1.51c-2,4.21-4,8.36-5.9,12.58-.34.72-.66,1-1.18,1.05m.89-.53c3,0,6,1,9,0,22.43-12.68,43-29.16,67.16-36.46m-77.05,37c-4.12.63-7.7-2-11.2-5.53-4.42-4.48-8.92-8.72-13.43-12.88a8.57,8.57,0,0,0-6.18-2.66c-2.59.13-3.66,2.92-2.79,7.3.1.51.22,1,.37,1.73a12,12,0,0,0-1.52.6c-1.53.86-3.07,1.68-4.56,2.7a1.45,1.45,0,0,1-1.58.2c-5-2.24-9.61-6.14-14.32-9.65-3.88-2.89-7.83-5.3-12-6.25a31.68,31.68,0,0,0-13.87.24c-10.37,2.27-19.42,10.13-27.69,21.25-2.11,2.83-4,6.14-6.23,8.75-3.92,4.7-7.92,9.22-12,13.44-2.61,2.7-5.5,4.54-8.15,7.12a60.66,60.66,0,0,0-4.7,5.87,2.53,2.53,0,0,0-.6,1.16c2.39-3.12,4.81-6,7.7-7.45-.23.31-.45.64-.68.92a49.24,49.24,0,0,0-6.57,10.55,41.19,41.19,0,0,1-8.72,12.57c-.82.8-1.64,1.65-2.45,2.48,0,.14.07.29.1.43l8.63-6.61c-3.64,5.42-7.69,9.24-11.46,13.83,3.88-2.94,7.84-5.62,11.47-9.72-.91,1.54-1.77,3.16-2.73,4.59s-2,2.8-3.07,4.11-2.09,2.45-3.14,3.68-2.12,2.53-3.14,4q2.71-1.95,5.41-3.92c-5.95,6.83-9.62,16.83-12.42,28.09,1.23-2.88,2.45-5.79,3.72-8.62a22.48,22.48,0,0,1,4.7-6.8c-3,7-4,15.2-4.57,23.71,1.75-9,3.14-18.4,6.78-25.87l-.84,3.64c-2.12,9.21-4.09,18.55-6.39,27.61-1.76,7-3.87,13.69-5.93,20.41-3.48,11.3-8.61,19.3-15.24,24.22a46.71,46.71,0,0,0-4.31,3.6,3.31,3.31,0,0,0,.56-.23c2.1-1.23,4.22-2.41,6.31-3.74,5.31-3.36,9.16-10,12.26-18.14,1.66-4.37,3.26-8.81,4.89-13.22a5.1,5.1,0,0,1,.66-1.39c-.11.43-.2.87-.32,1.28-1.87,5.95-3.7,11.94-5.61,17.84-3,9.26-7.45,15.17-13.2,17.92-5.25,2.52-10.51,5-15.76,7.5a21.77,21.77,0,0,0-8.35,6.84c.24-.07.34,0,.41-.12,4.1-4.37,8.64-6.06,13.3-7,2.32-.48,4.61-1.3,6.91-2a1.59,1.59,0,0,1,.84,0c-5.12,3.81-10.24,7.67-15.57,10.39s-10.78,5-16.11,7.49a20.28,20.28,0,0,0,2.05,0,9.64,9.64,0,0,0,2.23-.42c4-1.36,8.06-2.82,12.09-4.16,2-.68,4.11-1.15,6.39-1.78a35.71,35.71,0,0,0-4.28,3.72A30.82,30.82,0,0,0,509,566.4c-1.06,2-1.88,4.36-2.81,6.56l.28.45c.94-1.78,1.85-3.62,2.83-5.33,1.88-3.28,4.11-5.41,6.68-6.35,3.32-1.2,6.37-3.75,9.38-6.41,3.17-2.79,6.3-5.68,9.45-8.52.23-.21.47-.39.88-.72-3.58,4.12-7,7.88-10.37,12s-6.49,8.53-9.73,12.82l.12.31,11.1-13.35.2.52c-4.29,5.35-8.55,10.82-12.9,16s-9.09,9.14-13.8,13.14a38.53,38.53,0,0,0,11.36-8.35c3.57-3.61,7.11-7.32,10.72-10.83-1.57,2.17-3.15,4.3-4.69,6.53a74,74,0,0,0-7.5,13.57,33.39,33.39,0,0,0-2.68,10.34,22.8,22.8,0,0,0,0,2.62,28.69,28.69,0,0,1,4.26-13.83,70.86,70.86,0,0,1,4.54-6.34c6.24-7.76,12.2-16.18,18.07-24.8a2.88,2.88,0,0,1,.69-.77c-4.25,7.39-8.65,14.51-11.72,23.77,4.53-10,10.05-18.24,15.34-26.88-6.7,13.1-13.45,26.11-19,41,3.15-6.7,6.2-13.59,9.49-20.06s6.75-12.87,10.37-18.83,7.54-11.31,11.32-16.93l.15.3-9.64,15.52.16.33,3.31-5.31a120.54,120.54,0,0,1,13.47-17.29c3.48-3.9,6.88-8.06,10.15-12.51,3.74-5.09,6.43-11.58,7-20.84.31.76.48,1.11.6,1.49a72.85,72.85,0,0,0,12.93,24c2.65,3.3,5,7.52,7.39,11.38a3.44,3.44,0,0,1,.17,1.6,71.43,71.43,0,0,1-6.93,25c-2.29,4.62-4.59,9.25-7.07,13.52-4.6,7.91-3,19.2,2,23.56,2.26,2,4.67,3.46,7,5.39,10.06,8.51,20.25,16.58,29.78,27,3.14,3.45,6.11,7.43,9.12,11.26a25.73,25.73,0,0,1,2.25,3.77,5.39,5.39,0,0,0,2.37,2.6c1.38.6,2.08,2.73,2.89,4.51a2,2,0,0,1-.5,2.21c-1.47,1.12-1.67,3.46-1.72,5.82,0,2,.09,4,.15,6-.3.12-.95.05-1.08.49a10.15,10.15,0,0,0-.24,2.87,12.71,12.71,0,0,0,.32,2.32c1.61,7.27,3.74,13.92,7.12,19.06,2.26,3.44,3.78,3.11,5-1.77,1.29-5.06,2.17-10.45,3.34-15.61a36.14,36.14,0,0,0,.29-12.19c-.21-1.85-.29-3.75-.44-5.79.18.15.31.2.4.34,5.3,7.65,10.63,15.26,15.89,23a46.07,46.07,0,0,1,2.81,5.67c1.23,2.56,2.39,5.17,4.5,5.69,1.29.31,2.15,2.21,2.86,4.08.57,1.52,1,3.21,1.52,4.92-.45.57-.83,1.06-1.21,1.53-1.85,2.19-2.42,5.32-2.06,9.1.1,1,.28,2,.42,3.05a14.15,14.15,0,0,1,.1,3.87,9.87,9.87,0,0,0,.52,4.34,56.67,56.67,0,0,0,3.88,7.54c2.47,4,5.38,6.48,8.69,7.34h2l.79-.43c1.28-.7,1.71-1.83,1.53-4.21q-.91-12-1.85-24a6.33,6.33,0,0,0-.16-1c-.74-3.17-1.45-6.36-2.24-9.48s-1.58-6.06-2.47-9a71.93,71.93,0,0,1-3.52-15.89A7,7,0,0,0,681,669c-2.3-3-4.56-6-6.83-9.09a3.08,3.08,0,0,1-.44-.83,16.93,16.93,0,0,1,6.1,5.55c1.66,2.48,3.2,5.24,4.75,8a4.73,4.73,0,0,0,3.15,2.66c9.16,1.67,18.15,5,27.07,8.94a32.13,32.13,0,0,1,4.65,2.83,4.63,4.63,0,0,0,5.69.18c1.83-1.27,3.65-2.63,5.42-4.13,3.11-2.62,4.55-7.36,4.48-13.29-.13-11.18,1-22.07,2-33,.83-9.1,2-18.1,3-27.15.14-1.27.31-2.56.34-3.84a18.22,18.22,0,0,1,3.41-10.34c2.11-3.23,4.68-5.11,7.18-7.14,4.07-3.29,8.17-6.49,12.27-9.67a1.18,1.18,0,0,1,1.19-.17c2,.92,4,1.94,5.92,2.94a5.59,5.59,0,0,1,1.33.84c7.1,6.4,14.64,10.63,22.17,15,2.64,1.51,5.2,3.54,7.87,4.79,2.45,1.14,3.91,4.13,5.32,7.43a10.76,10.76,0,0,1,.1,8.05,107.54,107.54,0,0,1-8.22,18,46.69,46.69,0,0,1-7.51,10.6,14.9,14.9,0,0,1-3.3,2.36c-1.17.63-2.21,1.27-2.13,4.17a14.23,14.23,0,0,1-3.14-.46c-.47-.17-.94-1-1.26-1.69-.44-1-.7-2.27-1.14-3.29-.7-1.63-1.52-1.87-2.57-1.09-.81.59-1.65,1.35-2.42-.25a.51.51,0,0,0-.56-.2,11.72,11.72,0,0,0-2.3.57c-1.16.49-1.44,1.06-2.29,4.11l-1-.41c.13-.76.29-1.44.35-2.15.08-1-.27-1.52-.74-1-3.14,3.58-6.41,6.94-8.59,12.6-1.9,5-.86,9.45,2.47,10.38a64.94,64.94,0,0,0,7.3,1.2,4.37,4.37,0,0,1,1.31.34,6.34,6.34,0,0,0,4.7.33,29,29,0,0,1,6.84-1.39c2.14,0,4.29.73,6.43,1.17a19.39,19.39,0,0,1,1.89.57c2.09.65,3.81-.59,5-3.61C801,657,806.45,647,811.68,636.46c.48-1,.94-2,1.47-2.85A22.12,22.12,0,0,1,815,631c2.09-2.51,3.49-6.09,4.79-9.83a4.71,4.71,0,0,0,.15-1.29c0-3.14.05-6.28.12-9.42a55.76,55.76,0,0,0-.66-10.21,18.44,18.44,0,0,0-2.8-7.62,16.79,16.79,0,0,0-1.46-2c-3.61-3.74-6.52-8.92-9.37-14.28-3-5.59-6-11-9.08-16.52a63.68,63.68,0,0,1-4.54-11.24,2.08,2.08,0,0,1,.22-1.79c2.45-5.61,4.94-11.18,7.33-16.87,3.15-7.46,3.94-16,3.35-25.11-.34-5.2-.56-10.43-.77-15.66a54.28,54.28,0,0,1,2.24-18q7.11-23.56,15.46-45.79c.28-.74.63-1.4.9-2.15,2.53-6.72,6.33-9.77,10.49-11.79.23-.11.61.14.78.45.93,1.65,1.83,3.36,2.7,5.09a4.17,4.17,0,0,1,.27,1.32c.07.63.06,1.29.15,1.91.4,2.49,1.44,3.34,2.7,2.11.44-.44.75-.5,1.19,0,1.33,1.49,2.71,1.53,4.12.25.48-.44,1-.83,1.55-1.3.25,1.5.45,2.81.71,4.08a3,3,0,0,0,.5,1.09c.41.52.88.88,1.28,1.41.54.73,1.06.9,1.67.27a.58.58,0,0,1,.76,0c2.6,2.23,5.18,4.52,7.77,6.79.07.06.14.15.21.22a1.06,1.06,0,0,1,0,.29c-.76,4.62.55,7.77,3.51,8.32a22.3,22.3,0,0,0,2.64.23c.11,2.06.31,4,.28,6a17.13,17.13,0,0,1-.62,3.63c-.25,1.09-.62,2.1-.86,3.22,1.36-1.44,2.07-1.31,3.6.44,1.13-1.75,2.24-3.34,3.26-5.1,1.61-2.79,1.76-3,3.32-.29s3.37,3,5.38,2a6,6,0,0,1,2.61-.63c1.36,0,2.46-.81,3.12-3,.23-.81.55-1.15,1-1.15,2.23,0,3.73-2.5,5.24-5a5.15,5.15,0,0,0,.51-3.16c-.08-.84-.25-1.66-.27-2.49a9.6,9.6,0,0,1,.17-2.73c.87-2.75,1.84-5.4,2.77-8.09v-2.1c-.52-1.41-1-2.93-1.56-4.21-3.53-7.52-7-15.05-10.64-22.46a127.39,127.39,0,0,1-9-26.26c-1.2-5.08-2.6-10-4-15a17.67,17.67,0,0,0-1.29-3.1,1.42,1.42,0,0,1,0-1.62l1.4-2c-.69-.69-1.24-1.52-1.87-1.82-2.66-1.29-4.72-4.33-6.77-7.38-1.58-2.35-3.08-4.89-4.58-7.42a4.27,4.27,0,0,1-.54-1.88,3.62,3.62,0,0,0-.82-2.39c-1.15-1.5-2.3-2.81-3.83-2.07-.17.08-.42-.15-.59-.37-1.95-2.62-3.92-5.23-5.84-7.94-.83-1.17-1.54-2.6-2.32-3.87-1.75-2.85-3.49-5.7-5.26-8.48-.65-1-1.21-.8-1.68.48a16.81,16.81,0,0,0-.79,6.17c0,.79.06,1.58.1,2.57-4.87-3.41-8.79-8.81-12.08-15.91.07.39.13.78.2,1.16.74,3.87,1.54,7.7,2.2,11.61a50.7,50.7,0,0,0,4.41,13.77l.75,1.55-4.88,4.49L810.4,304.64l-.16.23c1.28,3.29,2.59,6.54,3.82,9.89s2.34,6.75,3.38,10.31c-3.35-5.84-6.43-12.15-10.64-16.52.65,2.27,1.24,4.32,1.83,6.36-3.62-5.73-6.9-12.08-11.33-15.83a104.11,104.11,0,0,1,10.26,17.16c-4.57-6.1-9.27-11.62-15.36-11l1.61.65c.57.22,1.14.4,1.71.64,6,2.48,10.31,9,13,18.92.62,2.32.86,5,1.31,7.72l-5.33-4.35-.06.27,1.7,3.4-7.61-4.39c0,.15-.06.31-.1.47,2,1.89,4.34,2.87,6,6-4-2.24-7.58-6.42-11.42-9.55l8.18,10.69-24.92-11.48-.06.39,15.18,10.74-.06.23-8.07-3.35,0,.3,10.23,7.14c0,.17-.06.33-.1.49-4.11-2.29-8.17-5-12.7-6.13l5.95,5.65-.09.39c-4-3.46-8-6.9-12.54-7.39a57,57,0,0,1,12.51,12.78l-8.61-4.75-.09.48c2.71,1.61,5.5,3,7.57,5.81l-8.79-3.3c0,.13,0,.26,0,.39,2.78,1.81,5.76,2.84,8.26,6.07l.71-.21-.71.21c.26.33.51.68.76,1.07l-1.89-.74c-24.19,7.3-44.73,23.78-67.16,36.46-3,1-6,0-9,0m44.31-63.57c.93-1.15,1.89-2.22,2.86-3.29s1.24-1,1.42,1.05c.38,4.38.59,8.82,1.05,13.16.34,3.16,1,6.21,1.5,9.31.31,2,.5,4,.9,5.89.48,2.31,1.12,4.53,1.7,6.78.15.56.34,1.08.6,1.89a8.61,8.61,0,0,1-1.12-.43,16.12,16.12,0,0,1-5.78-5.36,7.89,7.89,0,0,0-2.19-2,2,2,0,0,1-.74-2,18.34,18.34,0,0,0-.14-3,8.78,8.78,0,0,1,.29-4.14,9.69,9.69,0,0,0,0-2.87c0-1.13-.19-2.25-.24-3.38-.15-3.48-.27-7-.38-10.44A2.53,2.53,0,0,1,751.74,323.35ZM632.25,567a286.12,286.12,0,0,1-9.83,40.14c-.06.17-.13.32-.23.61a9.94,9.94,0,0,1-.83-.58c-3.44-3.22-6.92-6.31-10.3-9.72a24.51,24.51,0,0,1-3.64-5.15,14.1,14.1,0,0,1-.93-10.63c1.32-5,3.13-9.3,6-11.7,3.08-2.6,5.47-6.62,7.72-11,3.17-6.15,6.28-12.39,9.42-18.6.69-1.37,1.37-1.46,1.82.19a53.32,53.32,0,0,1,1.5,7.24A62.23,62.23,0,0,1,632.25,567Zm88.32,99.24c-.17.24-.46.23-.7.26-3.11.4-6.13-.81-9.14-1.94-3.75-1.4-7.48-2.91-11.23-4.35-1.21-.46-2.24-1.19-2.46-3.76a1.07,1.07,0,0,0-.47-.71c-2.63-1.53-5.28-3-7.92-4.53a4.05,4.05,0,0,1-1.06-1.05c-.73-1-1.47-1.93-2.43-1.51a8.83,8.83,0,0,0-1.59,1.25,34.41,34.41,0,0,0-2.71-2.19c-2.61-1.66-3.47-5.34-3.77-9.85-.12-1.82-.33-3.64-.62-5.39s-1.07-2.64-2.18-2.88a23.19,23.19,0,0,1-3.76-1.64.59.59,0,0,0-.66.08,7.41,7.41,0,0,0-.82,1.24l-3,5c-.07.11-.19.13-.28.19s-.14-.13-.15-.2c-.43-2.69-.43-2.68-1.71-1s-2.78,3.65-4.2,5.41c-.21.27-.67.43-.83.21-2.87-3.85-5.71-7.78-8.55-11.68-2.06-2.83-2.83-6.69-2.73-11.19a102.28,102.28,0,0,1,3-23.14A76.38,76.38,0,0,1,656.34,577a51.13,51.13,0,0,0,3.73-11.1c1.81-7.5,3.57-15,5.35-22.56l.46-2c.3.24.56.46.83.66,2.69,2,5.4,3.87,8.06,6,2.07,1.65,4.07,3.59,6.11,5.38a14.12,14.12,0,0,0,2,1.57,54.4,54.4,0,0,0,18.27,7,11.08,11.08,0,0,1,4.44,1.57,1.55,1.55,0,0,1,.56.88c.77,4,2.45,5.83,4.68,6,.91.09,1.24.69,1.62,2.18,1.79,6.86,2.51,14.25,3.35,21.54.68,5.93.84,12.07,1.15,18.12.58,11.39,1.06,22.79,1.69,34.16A85.4,85.4,0,0,0,721,662.13,7.4,7.4,0,0,1,720.57,666.24Zm115.37-248,1.83,2.51C836.57,421.76,836,420.91,835.94,418.25Zm28.31,23.51a13.35,13.35,0,0,1-4-.44c-1.79-.6-2.25-2.28-1.72-5.62l6.57,4.66.09.47C864.87,441.16,864.56,441.77,864.25,441.76Z"/>
</svg>
